<svg width="28" height="24" viewBox="0 0 28 24" fill="none" xmlns="http://www.w3.org/2000/svg">
<path fill-rule="evenodd" clip-rule="evenodd" d="M27.5 1.5258C27.5 1.7095 27.3665 1.85815 27.202 1.85815H26.3675C26.0635 1.85815 25.7894 2.06408 25.6748 2.37909L18.0621 23.25L14.228 13.633L10.1257 23.2499L2.27506 2.37085C2.15814 2.06063 1.88634 1.85892 1.58514 1.85892H0.7982C0.6338 1.85892 0.5 1.7095 0.5 1.52571V0.75H7.28403L7.26491 1.53471C7.26063 1.71535 7.12837 1.85892 6.96689 1.85892H5.83126C5.40903 1.85892 5.11966 2.33503 5.27454 2.77341L10.7864 18.3541L13.574 11.6032L10.0512 2.36692C9.93354 2.059 9.66328 1.85815 9.36286 1.85815H8.81497C8.65057 1.85815 8.51677 1.7095 8.51677 1.5258V0.750095H13.6113V1.5258C13.6113 1.7095 13.4776 1.85815 13.3133 1.85815C12.8836 1.85815 12.5934 2.34978 12.7629 2.79151L14.8447 8.20987L16.9703 2.79649C17.1436 2.35457 16.8542 1.85902 16.4217 1.85902H15.6259C15.4607 1.85902 15.3277 1.7096 15.3277 1.5258V0.750095H20.6627V1.5258C20.6627 1.7095 20.5297 1.85902 20.3645 1.85902H19.4767C19.1866 1.85902 18.9221 2.04693 18.7993 2.34078L15.5154 10.1874L18.5816 18.2383L23.9464 2.76613C24.0954 2.32842 23.8061 1.85892 23.3867 1.85892H22.0606C21.8962 1.85892 21.7624 1.7095 21.7624 1.52571V0.75H27.5V1.5258Z" fill="#B78467"/>
</svg>
