<svg width="20" height="21" viewBox="0 0 20 21" fill="none" xmlns="http://www.w3.org/2000/svg">
<path fill-rule="evenodd" clip-rule="evenodd" d="M0.402388 17.6608C-0.133065 18.1964 -0.132982 19.0645 0.402552 19.5999C0.938087 20.1354 1.80627 20.1354 2.34171 19.5998L10.0002 11.94L17.6593 19.5991C18.1947 20.1345 19.063 20.1345 19.5984 19.5991C20.1339 19.0636 20.1339 18.1954 19.5984 17.66L11.9392 10.0007L19.5979 2.3407C20.1332 1.80516 20.1332 0.936976 19.5976 0.401538C19.0621 -0.133914 18.1939 -0.133832 17.6584 0.401702L9.9999 8.06158L2.34078 0.40236C1.8053 -0.133119 0.9371 -0.133119 0.40162 0.40236C-0.133873 0.937854 -0.133873 1.80604 0.40162 2.34153L8.06103 10.0009L0.402388 17.6608Z" fill="#262626"/>
</svg>
