<svg width="17" height="16" viewBox="0 0 17 16" fill="none" xmlns="http://www.w3.org/2000/svg">
<path d="M5.93083 6.4235C5.6165 6.4235 5.36167 6.67833 5.36167 6.99267V11.66C5.36167 11.9743 5.6165 12.2292 5.93083 12.2292C6.24517 12.2292 6.5 11.9743 6.5 11.66V6.99283C6.5 6.67833 6.24517 6.4235 5.93083 6.4235Z" fill="#B78467"/>
<path d="M10.0692 6.4235C9.75483 6.4235 9.5 6.67833 9.5 6.99267V11.66C9.5 11.9743 9.75483 12.2292 10.0692 12.2292C10.3835 12.2292 10.6383 11.9743 10.6383 11.66V6.99283C10.6383 6.67833 10.3835 6.4235 10.0692 6.4235Z" fill="#B78467"/>
<path d="M14.8695 13.3648V3.80533H15.4328C15.7472 3.80533 16.002 3.5505 16.002 3.23617C16.002 2.92183 15.7472 2.667 15.4328 2.667H12.5353V1.68467C12.5353 0.755667 11.7797 0 10.8508 0H5.2815C4.35267 0 3.597 0.755667 3.597 1.6845V2.66683H0.569167C0.254833 2.66683 0 2.92167 0 3.236C0 3.55033 0.254833 3.80517 0.569167 3.80517H1.26283V13.3648C1.26283 14.8202 2.4425 16 3.898 16H12.2343C13.6898 16 14.8695 14.8202 14.8695 13.3648ZM4.73533 1.6845C4.73533 1.38333 4.98033 1.13833 5.2815 1.13833H10.8507C11.1518 1.13833 11.3968 1.38333 11.3968 1.6845V2.66683H4.73533V1.6845ZM2.40117 13.3648V3.89467H13.7312V13.3648C13.7312 14.1902 13.0598 14.8617 12.2345 14.8617H3.898C3.07267 14.8617 2.40117 14.1902 2.40117 13.3648Z" fill="#B78467"/>
</svg>
