<svg width="18" height="13" viewBox="0 0 18 13" fill="none" xmlns="http://www.w3.org/2000/svg">
<path d="M16.8969 0.000596638C16.6201 0.00994556 16.3577 0.126552 16.1652 0.325779L6.36366 10.2253L1.84017 5.65808C1.74223 5.5553 1.62478 5.47309 1.49468 5.41626C1.36458 5.35943 1.22445 5.32912 1.0825 5.32712C0.940541 5.32511 0.799612 5.35144 0.667958 5.40457C0.536304 5.45769 0.416571 5.53655 0.315769 5.63652C0.214966 5.73649 0.135119 5.85557 0.0809018 5.98678C0.0266847 6.11799 -0.000813007 6.25869 1.8301e-05 6.40066C0.000849609 6.54263 0.0299932 6.683 0.0857432 6.81357C0.141493 6.94413 0.222729 7.06226 0.324696 7.16105L5.60488 12.4913C5.70411 12.5913 5.82215 12.6706 5.9522 12.7248C6.08225 12.779 6.22174 12.8069 6.36262 12.8069C6.5035 12.8069 6.64299 12.779 6.77304 12.7248C6.90309 12.6706 7.02113 12.5913 7.12036 12.4913L17.6807 1.82875C17.834 1.6781 17.9383 1.48467 17.9799 1.27377C18.0214 1.06288 17.9983 0.844351 17.9136 0.646793C17.8289 0.449235 17.6866 0.281853 17.5052 0.166554C17.3237 0.0512546 17.1118 -0.006588 16.8969 0.000596638Z" fill="#262626"/>
</svg>
