<svg width="18" height="18" viewBox="0 0 18 18" fill="none" xmlns="http://www.w3.org/2000/svg">
<path d="M17.7909 3.86213L14.1314 0.201028C13.8637 -0.0670092 13.3897 -0.0670092 13.1221 0.201028L2.9234 10.4048C2.92293 10.405 2.92245 10.4052 2.92221 10.4057C2.92198 10.4062 2.92174 10.4064 2.92126 10.4067L1.1346 12.1941C1.03514 12.2934 0.967329 12.42 0.939728 12.5576L0.0141564 17.1445C-0.0331929 17.3789 0.0398536 17.6215 0.209026 17.7908C0.344174 17.926 0.526195 18 0.713689 18C0.760562 18 0.807912 17.9952 0.855023 17.986L5.44006 17.06C5.57782 17.0321 5.70416 16.9643 5.80338 16.8648L17.7909 4.87191C18.0697 4.59316 18.0697 4.14112 17.7909 3.86213ZM4.94634 15.7026L1.62641 16.3732L2.29644 13.0518L3.42711 11.9206L6.07701 14.5715L4.94634 15.7026ZM7.08634 13.5617L4.43644 10.9106L13.6267 1.71594L16.2769 4.36702L7.08634 13.5617Z" fill="#262626"/>
</svg>
