<svg width="28" height="20" viewBox="0 0 28 20" fill="none" xmlns="http://www.w3.org/2000/svg">
<path d="M6.81808 0H27.3898C27.7268 0 28 0.268455 28 0.59961V1.11228C28 1.44343 27.7268 1.71189 27.3898 1.71189H6.81808C6.4811 1.71189 6.20792 1.44343 6.20792 1.11228V0.59961C6.20792 0.268455 6.4811 0 6.81808 0Z" fill="#262626"/>
<path d="M6.81808 18.2881H27.3898C27.7268 18.2881 28 18.5566 28 18.8877V19.4004C28 19.7315 27.7268 20 27.3898 20H6.81808C6.4811 20 6.20792 19.7315 6.20792 19.4004V18.8877C6.20792 18.5566 6.4811 18.2881 6.81808 18.2881Z" fill="#262626"/>
<path d="M27.3898 9.13506H3.17844L4.83504 7.37221C4.9601 7.24574 5.03006 7.07635 5.03006 6.90001C5.03006 6.72368 4.9601 6.55429 4.83504 6.42782L4.57878 6.17599C4.51488 6.11208 4.43868 6.06132 4.35461 6.02667C4.27054 5.99202 4.18028 5.97417 4.08912 5.97417C3.99795 5.97417 3.9077 5.99202 3.82363 6.02667C3.73956 6.06132 3.66335 6.11208 3.59946 6.17599L0.194733 9.50382C0.0698738 9.62978 0 9.79867 0 9.97452C0 10.1504 0.0698738 10.3193 0.194733 10.4452L3.57505 13.776C3.63894 13.84 3.71515 13.8907 3.79922 13.9254C3.88329 13.96 3.97354 13.9779 4.06471 13.9779C4.15588 13.9779 4.24613 13.96 4.3302 13.9254C4.41427 13.8907 4.49048 13.84 4.55437 13.776L4.81064 13.5242C4.93569 13.3977 5.00565 13.2284 5.00565 13.052C5.00565 12.8757 4.93569 12.7063 4.81064 12.5798L3.16319 10.817H27.3898C27.5517 10.817 27.7069 10.7538 27.8213 10.6413C27.9357 10.5289 28 10.3764 28 10.2174V9.73467C28 9.57565 27.9357 9.42313 27.8213 9.31068C27.7069 9.19824 27.5517 9.13506 27.3898 9.13506Z" fill="#262626"/>
</svg>
