<svg width="24" height="24" viewBox="0 0 24 24" fill="none" xmlns="http://www.w3.org/2000/svg">
<path d="M12 0C9.62663 0 7.30655 0.703788 5.33316 2.02236C3.35977 3.34094 1.8217 5.21508 0.913451 7.4078C0.0051994 9.60051 -0.232441 12.0133 0.230582 14.3411C0.693604 16.6688 1.83649 18.807 3.51472 20.4853C5.19295 22.1635 7.33115 23.3064 9.65892 23.7694C11.9867 24.2324 14.3995 23.9948 16.5922 23.0865C18.7849 22.1783 20.6591 20.6402 21.9776 18.6668C23.2962 16.6934 24 14.3734 24 12C24 8.8174 22.7357 5.76515 20.4853 3.51472C18.2348 1.26428 15.1826 0 12 0ZM12 22.2857C9.96568 22.2857 7.97704 21.6825 6.28557 20.5523C4.59409 19.422 3.27574 17.8156 2.49724 15.9362C1.71874 14.0567 1.51505 11.9886 1.91193 9.99335C2.3088 7.99812 3.28842 6.16538 4.72691 4.7269C6.16539 3.28842 7.99813 2.3088 9.99336 1.91192C11.9886 1.51505 14.0567 1.71874 15.9362 2.49724C17.8156 3.27574 19.422 4.59409 20.5523 6.28556C21.6825 7.97704 22.2857 9.96567 22.2857 12C22.2857 14.7279 21.202 17.3441 19.2731 19.2731C17.3442 21.202 14.7279 22.2857 12 22.2857Z" fill="#B78467"/>
<path d="M15.0343 6.23143C14.3572 5.66685 13.5333 5.30661 12.6591 5.19277C11.7849 5.07894 10.8963 5.21622 10.0971 5.58857C9.38167 5.94311 8.77946 6.49048 8.35844 7.16896C7.93741 7.84745 7.71431 8.63007 7.71429 9.42857C7.71429 9.6559 7.80459 9.87391 7.96534 10.0347C8.12609 10.1954 8.3441 10.2857 8.57143 10.2857C8.79876 10.2857 9.01678 10.1954 9.17752 10.0347C9.33827 9.87391 9.42857 9.6559 9.42857 9.42857C9.42843 8.94899 9.56239 8.47894 9.81534 8.07149C10.0683 7.66405 10.4301 7.33547 10.86 7.12286C11.3542 6.89928 11.9012 6.81852 12.439 6.88972C12.9767 6.96092 13.4838 7.18123 13.9029 7.52571C14.2473 7.94474 14.4677 8.45184 14.5389 8.98961C14.61 9.52737 14.5293 10.0743 14.3057 10.5686C14.0931 10.9984 13.7645 11.3603 13.3571 11.6132C12.9496 11.8662 12.4796 12.0001 12 12C11.7727 12 11.5547 12.0903 11.3939 12.251C11.2332 12.4118 11.1429 12.6298 11.1429 12.8571V14.5714C11.1429 14.7988 11.2332 15.0168 11.3939 15.1775C11.5547 15.3383 11.7727 15.4286 12 15.4286C12.2273 15.4286 12.4453 15.3383 12.6061 15.1775C12.7668 15.0168 12.8571 14.7988 12.8571 14.5714V13.62C13.4956 13.4903 14.0961 13.2168 14.6129 12.8203C15.1298 12.4237 15.5494 11.9145 15.84 11.3314C16.2124 10.5323 16.3496 9.64371 16.2358 8.76947C16.122 7.89522 15.7617 7.07142 15.1971 6.39428C15.1504 6.33292 15.0957 6.27814 15.0343 6.23143Z" fill="#B78467"/>
<path d="M12 16.2857C11.7727 16.2857 11.5547 16.376 11.3939 16.5368C11.2332 16.6975 11.1429 16.9155 11.1429 17.1429V18C11.1429 18.2273 11.2332 18.4453 11.3939 18.6061C11.5547 18.7668 11.7727 18.8571 12 18.8571C12.2273 18.8571 12.4453 18.7668 12.6061 18.6061C12.7668 18.4453 12.8571 18.2273 12.8571 18V17.1429C12.8571 16.9155 12.7668 16.6975 12.6061 16.5368C12.4453 16.376 12.2273 16.2857 12 16.2857Z" fill="#B78467"/>
</svg>
