<svg width="18" height="18" viewBox="0 0 18 18" fill="none" xmlns="http://www.w3.org/2000/svg">
<path d="M7.90263 0C3.54844 0 0 3.54846 0 7.90263C0 12.2568 3.54844 15.8053 7.90263 15.8053C9.75671 15.8053 11.4607 15.1581 12.8108 14.0831L16.4643 17.7365C16.8156 18.0878 17.3852 18.0878 17.7365 17.7365C18.089 17.385 18.089 16.814 17.7365 16.4625L14.0831 12.8108C15.1578 11.4608 15.8053 9.75641 15.8053 7.90263C15.8053 3.54846 12.2568 0 7.90263 0ZM7.90263 1.79949C11.2843 1.79949 14.0058 4.52097 14.0058 7.90263C14.0058 11.2843 11.2843 14.0058 7.90263 14.0058C4.52096 14.0058 1.79949 11.2843 1.79949 7.90263C1.79949 4.52097 4.52096 1.79949 7.90263 1.79949Z" fill="#262626"/>
</svg>
