<svg width="20" height="20" viewBox="0 0 20 20" fill="none" xmlns="http://www.w3.org/2000/svg">
<path fill-rule="evenodd" clip-rule="evenodd" d="M4.18193 7.40264C4.18193 7.40264 3.01731 8.56728 1.71324 9.87075C0.616262 10.9679 0 12.4558 0 14.0073C0 15.5588 0.616262 17.0468 1.71324 18.1439L1.85607 18.2867C2.95322 19.3837 4.44117 20 5.99265 20C7.54413 20 9.03207 19.3837 10.1292 18.2867C11.4327 16.9827 12.5973 15.818 12.5973 15.818C12.6766 15.7392 12.7395 15.6455 12.7825 15.5422C12.8255 15.439 12.8477 15.3283 12.8478 15.2165C12.848 15.1047 12.8261 14.994 12.7833 14.8907C12.7406 14.7873 12.678 14.6935 12.5989 14.6144C12.5199 14.5353 12.426 14.4726 12.3227 14.4298C12.2194 14.3871 12.1087 14.3651 11.9969 14.3652C11.8851 14.3653 11.7744 14.3875 11.6712 14.4304C11.5679 14.4733 11.4742 14.5362 11.3953 14.6154C11.3953 14.6154 10.2306 15.7806 8.92662 17.0841C8.54138 17.4695 8.08399 17.7752 7.58057 17.9838C7.07715 18.1924 6.53757 18.2998 5.99265 18.2998C5.44773 18.2998 4.90814 18.1924 4.40473 17.9838C3.90131 17.7752 3.44391 17.4695 3.05867 17.0841L2.91585 16.9413C2.53045 16.5561 2.22473 16.0987 2.01614 15.5952C1.80756 15.0918 1.7002 14.5522 1.7002 14.0073C1.7002 13.4624 1.80756 12.9228 2.01614 12.4194C2.22473 11.916 2.53045 11.4586 2.91585 11.0733C4.21933 9.7693 5.38455 8.60467 5.38455 8.60467C5.46347 8.5257 5.52607 8.43196 5.56878 8.32881C5.61148 8.22565 5.63344 8.11509 5.63341 8.00344C5.63339 7.8918 5.61137 7.78125 5.56862 7.67811C5.52587 7.57497 5.46322 7.48127 5.38426 7.40234C5.30529 7.32341 5.21156 7.26081 5.1084 7.21811C5.00524 7.17541 4.89468 7.15344 4.78304 7.15347C4.67139 7.1535 4.56084 7.17551 4.4577 7.21826C4.35457 7.26101 4.26086 7.32366 4.18193 7.40262V7.40264ZM12.6126 6.18474L6.1859 12.612C6.0265 12.7714 5.93695 12.9876 5.93695 13.2131C5.93695 13.4385 6.0265 13.6547 6.1859 13.8141C6.3453 13.9735 6.56149 14.063 6.78691 14.063C7.01234 14.063 7.22853 13.9735 7.38793 13.8141L13.8152 7.38734C13.8943 7.3084 13.9571 7.21465 13.9999 7.11145C14.0428 7.00824 14.0648 6.8976 14.0649 6.78586C14.0649 6.67412 14.043 6.56346 14.0002 6.46021C13.9575 6.35697 13.8948 6.26315 13.8158 6.18414C13.7368 6.10513 13.643 6.04246 13.5398 5.99972C13.4365 5.95699 13.3258 5.93502 13.2141 5.93507C13.1024 5.93513 12.9917 5.95721 12.8885 6.00005C12.7853 6.04288 12.6916 6.10564 12.6126 6.18474ZM15.8045 12.6109C15.8045 12.6109 16.977 11.4389 18.2868 10.1292C19.3837 9.03205 20 7.5441 20 5.99262C20 4.44114 19.3837 2.95319 18.2868 1.85605L18.1439 1.71322C17.0468 0.616255 15.5588 0 14.0074 0C12.4559 0 10.9679 0.616255 9.87077 1.71322C8.56788 3.01671 7.40325 4.18135 7.40325 4.18135C7.24385 4.34074 7.1543 4.55694 7.1543 4.78236C7.1543 5.00779 7.24385 5.22398 7.40324 5.38338C7.56264 5.54278 7.77883 5.63233 8.00426 5.63233C8.22968 5.63233 8.44588 5.54278 8.60528 5.38338C8.60528 5.38338 9.76991 4.21875 11.0734 2.91583C11.4586 2.53044 11.916 2.22472 12.4194 2.01613C12.9229 1.80755 13.4624 1.70019 14.0074 1.70019C14.5523 1.70019 15.0919 1.80755 15.5953 2.01613C16.0987 2.22472 16.5561 2.53044 16.9413 2.91583L17.0842 3.05866C17.4695 3.44389 17.7753 3.90129 17.9839 4.40471C18.1924 4.90813 18.2998 5.44771 18.2998 5.99263C18.2998 6.53755 18.1924 7.07714 17.9839 7.58055C17.7753 8.08397 17.4695 8.54137 17.0842 8.92661C15.7744 10.2363 14.6024 11.4089 14.6024 11.4089C14.4436 11.5684 14.3545 11.7844 14.3548 12.0095C14.355 12.2346 14.4446 12.4504 14.6038 12.6096C14.7629 12.7688 14.9787 12.8583 15.2038 12.8586C15.4289 12.8588 15.6449 12.7697 15.8045 12.6109V12.6109Z" fill="fill"/>
</svg>
