<svg width="21" height="22" viewBox="0 0 21 22" fill="none" xmlns="http://www.w3.org/2000/svg">
<path d="M18.9453 0.512363C18.6175 0.268663 18.2368 0.105803 17.8342 0.0370346C17.4315 -0.0317336 17.0183 -0.00446617 16.6282 0.116618L8.80032 2.52501C8.26583 2.68768 7.79799 3.01826 7.46616 3.46774C7.13434 3.91723 6.9562 4.46168 6.95815 5.02037V14.1947C6.20981 13.6191 5.29295 13.3055 4.34885 13.3023C3.48873 13.3023 2.64792 13.5574 1.93276 14.0352C1.21759 14.5131 0.660192 15.1923 0.331038 15.9869C0.00188428 16.7816 -0.0842373 17.656 0.0835638 18.4996C0.251365 19.3432 0.665552 20.1181 1.27375 20.7263C1.88195 21.3344 2.65684 21.7486 3.50043 21.9164C4.34402 22.0842 5.21843 21.9981 6.01308 21.669C6.80772 21.3398 7.48692 20.7824 7.96478 20.0672C8.44263 19.3521 8.69769 18.5113 8.69769 17.6512V5.02037C8.69747 4.83418 8.757 4.65282 8.86754 4.50299C8.97808 4.35315 9.13378 4.24275 9.31175 4.18801L17.1397 1.77962C17.2698 1.7396 17.4074 1.73067 17.5416 1.75356C17.6758 1.77645 17.8027 1.8305 17.9122 1.91139C18.0217 1.99227 18.1107 2.09772 18.172 2.21925C18.2333 2.34078 18.2652 2.475 18.2651 2.61111V10.7156C17.5168 10.14 16.5999 9.82644 15.6558 9.82324C14.7957 9.82324 13.9549 10.0783 13.2398 10.5561C12.5246 11.034 11.9672 11.7132 11.638 12.5079C11.3089 13.3025 11.2228 14.1769 11.3906 15.0205C11.5584 15.8641 11.9725 16.639 12.5807 17.2472C13.1889 17.8554 13.9638 18.2696 14.8074 18.4374C15.651 18.6052 16.5254 18.519 17.3201 18.1899C18.1147 17.8607 18.7939 17.3033 19.2718 16.5882C19.7496 15.873 20.0047 15.0322 20.0047 14.1721V2.61111C20.0069 2.2024 19.9119 1.79901 19.7278 1.43414C19.5436 1.06927 19.2754 0.753347 18.9453 0.512363ZM4.34885 20.2605C3.83277 20.2605 3.32829 20.1074 2.89919 19.8207C2.47009 19.534 2.13565 19.1265 1.93816 18.6497C1.74067 18.1729 1.689 17.6483 1.78968 17.1421C1.89036 16.636 2.13887 16.171 2.50379 15.8061C2.86871 15.4412 3.33364 15.1927 3.8398 15.092C4.34595 14.9913 4.8706 15.043 5.34738 15.2405C5.82417 15.438 6.23169 15.7724 6.5184 16.2015C6.80512 16.6306 6.95815 17.1351 6.95815 17.6512C6.95815 18.3432 6.68324 19.0069 6.1939 19.4962C5.70456 19.9856 5.04088 20.2605 4.34885 20.2605ZM15.6558 16.7814C15.1398 16.7814 14.6353 16.6284 14.2062 16.3416C13.7771 16.0549 13.4426 15.6474 13.2452 15.1706C13.0477 14.6938 12.996 14.1692 13.0967 13.663C13.1974 13.1569 13.4459 12.6919 13.8108 12.327C14.1757 11.9621 14.6406 11.7136 15.1468 11.6129C15.6529 11.5122 16.1776 11.5639 16.6544 11.7614C17.1312 11.9589 17.5387 12.2933 17.8254 12.7224C18.1121 13.1515 18.2651 13.656 18.2651 14.1721C18.2651 14.8641 17.9902 15.5278 17.5009 16.0171C17.0116 16.5065 16.3479 16.7814 15.6558 16.7814Z" fill="fill"/>
</svg>
