<svg width="20" height="18" viewBox="0 0 20 18" fill="none" xmlns="http://www.w3.org/2000/svg">
<path d="M2.85642 3.63052C1.28632 3.63052 0 4.89035 0 6.42812V15.2024C0 16.7402 1.28632 18 2.85642 18H13.8666C15.4367 18 16.723 16.7402 16.723 15.2024V6.42812C16.723 4.89035 15.4367 3.63052 13.8666 3.63052H2.85642ZM2.85642 5.02932H13.8666C14.6702 5.02932 15.2948 5.64108 15.2948 6.42812V15.2024C15.2948 15.9894 14.6702 16.6012 13.8666 16.6012H2.85642C2.05284 16.6012 1.42821 15.9894 1.42821 15.2024V6.42812C1.42821 5.64108 2.05284 5.02932 2.85642 5.02932Z" fill="fill"/>
<path d="M4.2897 0C4.10031 0 3.91868 0.073686 3.78476 0.204849C3.65083 0.336012 3.5756 0.513907 3.5756 0.699399C3.5756 0.884892 3.65083 1.06279 3.78476 1.19395C3.91868 1.32511 4.10031 1.3988 4.2897 1.3988H17.1436C17.9472 1.3988 18.5718 2.01057 18.5718 2.7976V11.2327C18.5718 11.4182 18.647 11.5961 18.7809 11.7273C18.9149 11.8584 19.0965 11.9321 19.2859 11.9321C19.4753 11.9321 19.6569 11.8584 19.7908 11.7273C19.9248 11.5961 20 11.4182 20 11.2327V2.7976C20 1.25983 18.7137 0 17.1436 0H4.2897Z" fill="fill"/>
<path d="M8.41345 7.31826C6.44996 7.31826 4.84293 8.89221 4.84293 10.8153C4.84293 12.7383 6.44996 14.3123 8.41345 14.3123C10.3769 14.3123 11.984 12.7383 11.984 10.8153C11.984 8.89221 10.3769 7.31826 8.41345 7.31826ZM8.41345 8.71706C9.60507 8.71706 10.5558 9.64817 10.5558 10.8153C10.5558 11.9823 9.60507 12.9135 8.41345 12.9135C7.22182 12.9135 6.27114 11.9823 6.27114 10.8153C6.27114 9.64817 7.22182 8.71706 8.41345 8.71706Z" fill="fill"/>
</svg>
