<svg width="20" height="20" viewBox="0 0 20 20" fill="none" xmlns="http://www.w3.org/2000/svg">
<path d="M4.61538 10.7692H0.769231C0.565218 10.7692 0.369561 10.8503 0.225302 10.9945C0.0810437 11.1388 0 11.3344 0 11.5385V19.2308C0 19.4348 0.0810437 19.6304 0.225302 19.7747C0.369561 19.919 0.565218 20 0.769231 20H4.61538C4.8194 20 5.01505 19.919 5.15931 19.7747C5.30357 19.6304 5.38462 19.4348 5.38462 19.2308V11.5385C5.38462 11.3344 5.30357 11.1388 5.15931 10.9945C5.01505 10.8503 4.8194 10.7692 4.61538 10.7692ZM3.84615 18.4615H1.53846V12.3077H3.84615V18.4615Z" fill="fill"/>
<path d="M11.9231 5.38462H8.07692C7.87291 5.38462 7.67725 5.46566 7.533 5.60992C7.38874 5.75418 7.30769 5.94983 7.30769 6.15385V19.2308C7.30769 19.4348 7.38874 19.6304 7.533 19.7747C7.67725 19.919 7.87291 20 8.07692 20H11.9231C12.1271 20 12.3227 19.919 12.467 19.7747C12.6113 19.6304 12.6923 19.4348 12.6923 19.2308V6.15385C12.6923 5.94983 12.6113 5.75418 12.467 5.60992C12.3227 5.46566 12.1271 5.38462 11.9231 5.38462ZM11.1538 18.4615H8.84615V6.92308H11.1538V18.4615Z" fill="fill"/>
<path d="M19.2308 0H15.3846C15.1806 0 14.9849 0.0810437 14.8407 0.225302C14.6964 0.369561 14.6154 0.565218 14.6154 0.769231V19.2308C14.6154 19.4348 14.6964 19.6304 14.8407 19.7747C14.9849 19.919 15.1806 20 15.3846 20H19.2308C19.4348 20 19.6304 19.919 19.7747 19.7747C19.919 19.6304 20 19.4348 20 19.2308V0.769231C20 0.565218 19.919 0.369561 19.7747 0.225302C19.6304 0.0810437 19.4348 0 19.2308 0ZM18.4615 18.4615H16.1538V1.53846H18.4615V18.4615Z" fill="fill"/>
</svg>
