<svg width="20" height="18" viewBox="0 0 20 18" fill="none" xmlns="http://www.w3.org/2000/svg">
<path d="M2.33333 4.66667H17.6667C18.2855 4.66667 18.879 4.42083 19.3166 3.98325C19.7542 3.54566 20 2.95217 20 2.33333C20 1.71449 19.7542 1.121 19.3166 0.683418C18.879 0.245833 18.2855 1.3041e-08 17.6667 0H2.33333C1.71449 1.3041e-08 1.121 0.245833 0.683417 0.683418C0.245833 1.121 7.94729e-08 1.71449 7.94729e-08 2.33333C7.94729e-08 2.95217 0.245833 3.54566 0.683417 3.98325C1.121 4.42083 1.71449 4.66667 2.33333 4.66667ZM2.33333 1.33333H17.6667C17.9319 1.33333 18.1862 1.43869 18.3738 1.62623C18.5613 1.81376 18.6667 2.06812 18.6667 2.33333C18.6667 2.59855 18.5613 2.8529 18.3738 3.04044C18.1862 3.22798 17.9319 3.33333 17.6667 3.33333H2.33333C2.06812 3.33333 1.81376 3.22798 1.62623 3.04044C1.43869 2.8529 1.33333 2.59855 1.33333 2.33333C1.33333 2.06812 1.43869 1.81376 1.62623 1.62623C1.81376 1.43869 2.06812 1.33333 2.33333 1.33333Z" fill="fill"/>
<path d="M17.6667 6.33333H2.33333C1.71449 6.33333 1.121 6.57917 0.683417 7.01675C0.245833 7.45434 0 8.04783 0 8.66667C0 9.28551 0.245833 9.879 0.683417 10.3166C1.121 10.7542 1.71449 11 2.33333 11H17.6667C18.2855 11 18.879 10.7542 19.3166 10.3166C19.7542 9.879 20 9.28551 20 8.66667C20 8.04783 19.7542 7.45434 19.3166 7.01675C18.879 6.57917 18.2855 6.33333 17.6667 6.33333ZM17.6667 9.66667H2.33333C2.06812 9.66667 1.81376 9.56131 1.62623 9.37377C1.43869 9.18624 1.33333 8.93188 1.33333 8.66667C1.33333 8.40145 1.43869 8.1471 1.62623 7.95956C1.81376 7.77202 2.06812 7.66667 2.33333 7.66667H17.6667C17.9319 7.66667 18.1862 7.77202 18.3738 7.95956C18.5613 8.1471 18.6667 8.40145 18.6667 8.66667C18.6667 8.93188 18.5613 9.18624 18.3738 9.37377C18.1862 9.56131 17.9319 9.66667 17.6667 9.66667Z" fill="fill"/>
<path d="M17.6667 12.6667H2.33333C1.71449 12.6667 1.121 12.9125 0.683417 13.3501C0.245833 13.7877 7.94729e-08 14.3812 7.94729e-08 15C7.94729e-08 15.6188 0.245833 16.2123 0.683417 16.6499C1.121 17.0875 1.71449 17.3333 2.33333 17.3333H17.6667C18.2855 17.3333 18.879 17.0875 19.3166 16.6499C19.7542 16.2123 20 15.6188 20 15C20 14.3812 19.7542 13.7877 19.3166 13.3501C18.879 12.9125 18.2855 12.6667 17.6667 12.6667ZM17.6667 16H2.33333C2.06812 16 1.81376 15.8946 1.62623 15.7071C1.43869 15.5196 1.33333 15.2652 1.33333 15C1.33333 14.7348 1.43869 14.4804 1.62623 14.2929C1.81376 14.1054 2.06812 14 2.33333 14H17.6667C17.9319 14 18.1862 14.1054 18.3738 14.2929C18.5613 14.4804 18.6667 14.7348 18.6667 15C18.6667 15.2652 18.5613 15.5196 18.3738 15.7071C18.1862 15.8946 17.9319 16 17.6667 16Z" fill="fill"/>
</svg>
