<svg width="16" height="16" viewBox="0 0 16 16" fill="none" xmlns="http://www.w3.org/2000/svg">
<path d="M8 0C5.83734 0 3.87756 0.868896 2.43638 2.26674L2.66964 0.731027C2.71699 0.419162 2.50268 0.127919 2.19085 0.0803571C1.85483 0.0129617 1.59288 0.277071 1.54018 0.559152L1.03795 3.8683C0.981118 4.2447 1.30125 4.57041 1.67857 4.52009L4.9933 4.07589C5.30566 4.03372 5.52488 3.74658 5.48326 3.43415C5.44164 3.12134 5.15433 2.90149 4.84152 2.94308L3.13839 3.17076C4.37999 1.92043 6.09513 1.14286 8 1.14286C11.7939 1.14286 14.8571 4.20614 14.8571 8C14.8571 11.7939 11.7939 14.8571 8 14.8571C4.20614 14.8571 1.14286 11.7939 1.14286 8C1.14286 7.84845 1.08265 7.7031 0.97549 7.59594C0.868326 7.48878 0.722981 7.42857 0.571429 7.42857C0.419876 7.42857 0.274531 7.48878 0.167368 7.59594C0.0602039 7.7031 0 7.84845 0 8C0 12.4115 3.58849 16 8 16C12.4115 16 16 12.4115 16 8C16 3.58849 12.4115 0 8 0Z" fill="fill"/>
<path d="M8 4.57143C7.84845 4.57143 7.7031 4.63163 7.59594 4.7388C7.48878 4.84596 7.42857 4.9913 7.42857 5.14286V9.14286C7.42859 9.2944 7.4888 9.43974 7.59596 9.5469C7.70312 9.65406 7.84845 9.71427 8 9.71429H12C12.1516 9.71429 12.2969 9.65408 12.4041 9.54692C12.5112 9.43976 12.5714 9.29441 12.5714 9.14286C12.5714 8.99131 12.5112 8.84596 12.4041 8.7388C12.2969 8.63163 12.1516 8.57143 12 8.57143H8.57143V5.14286C8.57143 4.9913 8.51123 4.84596 8.40406 4.7388C8.2969 4.63163 8.15155 4.57143 8 4.57143Z" fill="fill"/>
</svg>
