<svg width="16" height="9" viewBox="0 0 16 9" fill="none" xmlns="http://www.w3.org/2000/svg">
<path d="M0.593178 1.25342H15.3989C15.7311 1.25342 16 0.979492 16 0.630859C16 0.282227 15.7311 0 15.3989 0H0.593178C0.260999 0 0 0.282227 0 0.630859C0 0.979492 0.260999 1.25342 0.593178 1.25342ZM0.593178 4.87256H15.3989C15.7311 4.87256 16 4.59863 16 4.25C16 3.89307 15.7311 3.61084 15.3989 3.61084H0.593178C0.260999 3.61084 0 3.89307 0 4.25C0 4.59863 0.260999 4.87256 0.593178 4.87256ZM0.593178 8.5H15.3989C15.7311 8.5 16 8.21777 16 7.86084C16 7.51221 15.7311 7.23828 15.3989 7.23828H0.593178C0.260999 7.23828 0 7.51221 0 7.86084C0 8.21777 0.260999 8.5 0.593178 8.5Z" fill="#B78467"/>
</svg>
