<svg width="18" height="13" viewBox="0 0 18 13" fill="none" xmlns="http://www.w3.org/2000/svg">
<path d="M17.8897 6.07128C16.8574 4.58781 15.6193 3.25877 14.2126 2.12409L15.2411 1.10193C15.3622 0.980876 15.4302 0.816692 15.4302 0.645495C15.4302 0.474299 15.3622 0.310115 15.2411 0.189061C15.1201 0.0680074 14.9559 0 14.7847 0C14.6135 0 14.4493 0.0680074 14.3283 0.189061L13.1583 1.3655C11.9289 0.526353 10.4865 0.0537142 8.99892 0.00263044C4.20958 0.00263044 0.275242 5.82056 0.108098 6.07128C0.0376145 6.17692 0 6.30107 0 6.42807C0 6.55506 0.0376145 6.67921 0.108098 6.78486C1.14043 8.26832 2.37856 9.59737 3.78529 10.732L2.7567 11.7542C2.63565 11.8753 2.56764 12.0394 2.56764 12.2106C2.56764 12.3818 2.63565 12.546 2.7567 12.6671C2.87776 12.7881 3.04194 12.8561 3.21314 12.8561C3.38433 12.8561 3.54852 12.7881 3.66957 12.6671L4.83958 11.4906C6.06822 12.3321 7.51072 12.8069 8.99892 12.8599C13.7883 12.8599 17.7226 7.03557 17.8897 6.79128C17.9616 6.68498 18 6.5596 18 6.43128C18 6.30296 17.9616 6.17759 17.8897 6.07128V6.07128ZM1.4324 6.43128C2.33884 5.20984 5.52102 1.28836 8.99892 1.28836C10.1417 1.32931 11.2522 1.67801 12.2132 2.29766L11.2232 3.28767C10.4807 2.76813 9.579 2.5266 8.67622 2.60546C7.77344 2.68433 6.92724 3.07853 6.28607 3.71895C5.64489 4.35936 5.24967 5.20508 5.16973 6.10777C5.08978 7.01045 5.33023 7.91247 5.84888 8.65559L4.69173 9.81918C3.4621 8.83695 2.36635 7.69797 1.4324 6.43128V6.43128ZM11.5704 6.43128C11.5677 6.88135 11.4469 7.32283 11.2201 7.71159C10.9933 8.10035 10.6684 8.42277 10.278 8.64663C9.88751 8.8705 9.44514 8.98795 8.99506 8.98727C8.54498 8.98659 8.10297 8.86778 7.71319 8.64274L11.2039 5.14555C11.4373 5.53432 11.5637 5.97789 11.5704 6.43128ZM6.42746 6.43128C6.43128 5.98176 6.55288 5.54109 6.78014 5.15322C7.00739 4.76535 7.33235 4.44383 7.72263 4.22073C8.1129 3.99762 8.55484 3.88073 9.00438 3.8817C9.45392 3.88267 9.89535 4.00147 10.2847 4.22625L6.79389 7.71701C6.56053 7.32824 6.43411 6.88467 6.42746 6.43128ZM8.99892 11.5742C7.85616 11.5332 6.74565 11.1845 5.7846 10.5649L6.77461 9.57489C7.51711 10.0944 8.41884 10.336 9.32162 10.2571C10.2244 10.1782 11.0706 9.78403 11.7118 9.14362C12.353 8.50321 12.7482 7.65748 12.8281 6.7548C12.9081 5.85211 12.6676 4.95009 12.149 4.20697L13.3061 3.04338C14.5341 4.02739 15.6297 5.16615 16.5654 6.43128C15.659 7.6463 12.4768 11.5742 8.99892 11.5742Z" fill="fill"/>
</svg>
