<svg width="24" height="21" viewBox="0 0 24 21" fill="none" xmlns="http://www.w3.org/2000/svg">
<path fill-rule="evenodd" clip-rule="evenodd" d="M17.2944 3.2L16.3576 1.3264C15.9512 0.513604 15.12 0 14.2112 0H9.7888C8.88 0 8.0488 0.513604 7.6424 1.3264L6.7056 3.2H2.4C1.7632 3.2 1.1528 3.4528 0.703198 3.9032C0.252798 4.3528 0 4.9632 0 5.6C0 8.6656 0 15.3344 0 18.4C0 19.0368 0.252798 19.6472 0.703198 20.0968C1.1528 20.5472 1.7632 20.8 2.4 20.8C6.5232 20.8 17.4768 20.8 21.6 20.8C22.2368 20.8 22.8472 20.5472 23.2968 20.0968C23.7472 19.6472 24 19.0368 24 18.4C24 15.3344 24 8.6656 24 5.6C24 4.9632 23.7472 4.3528 23.2968 3.9032C22.8472 3.4528 22.2368 3.2 21.6 3.2H17.2944ZM16.0848 4.3576C16.22 4.6288 16.4968 4.8 16.8 4.8H21.6C21.812 4.8 22.016 4.884 22.1656 5.0344C22.316 5.184 22.4 5.388 22.4 5.6V18.4C22.4 18.612 22.316 18.816 22.1656 18.9656C22.016 19.116 21.812 19.2 21.6 19.2H2.4C2.188 19.2 1.984 19.116 1.8344 18.9656C1.684 18.816 1.6 18.612 1.6 18.4V5.6C1.6 5.388 1.684 5.184 1.8344 5.0344C1.984 4.884 2.188 4.8 2.4 4.8H7.2C7.5032 4.8 7.78 4.6288 7.9152 4.3576L9.0736 2.04239C9.2088 1.77119 9.4856 1.6 9.7888 1.6H14.2112C14.5144 1.6 14.7912 1.77119 14.9264 2.04239L16.0848 4.3576Z" fill="#EAD2C4"/>
<path fill-rule="evenodd" clip-rule="evenodd" d="M12 6.4C8.9096 6.4 6.4 8.9096 6.4 12C6.4 15.0904 8.9096 17.6 12 17.6C15.0904 17.6 17.6 15.0904 17.6 12C17.6 8.9096 15.0904 6.4 12 6.4ZM12 8C14.208 8 16 9.792 16 12C16 14.208 14.208 16 12 16C9.792 16 8 14.208 8 12C8 9.792 9.792 8 12 8Z" fill="#EAD2C4"/>
<path fill-rule="evenodd" clip-rule="evenodd" d="M4 8H5.6C6.0416 8 6.4 7.6416 6.4 7.2C6.4 6.7584 6.0416 6.4 5.6 6.4H4C3.5584 6.4 3.2 6.7584 3.2 7.2C3.2 7.6416 3.5584 8 4 8Z" fill="#EAD2C4"/>
</svg>
