<svg width="22" height="22" viewBox="0 0 22 22" fill="none" xmlns="http://www.w3.org/2000/svg">
<path fill-rule="evenodd" clip-rule="evenodd" d="M4.60013 8.14293C4.60013 8.14293 3.31905 9.42403 1.88457 10.8579C0.67789 12.0647 0 13.7015 0 15.4081C0 17.1147 0.67789 18.7515 1.88457 19.9583L2.04168 20.1154C3.24855 21.3221 4.8853 22 6.59193 22C8.29856 22 9.9353 21.3221 11.1422 20.1154C12.576 18.681 13.8571 17.3999 13.8571 17.3999C13.9443 17.3131 14.0135 17.21 14.0608 17.0965C14.108 16.983 14.1325 16.8612 14.1326 16.7382C14.1328 16.6153 14.1087 16.4934 14.0617 16.3798C14.0147 16.2661 13.9458 16.1628 13.8589 16.0759C13.7719 15.9889 13.6687 15.9199 13.555 15.8729C13.4414 15.8258 13.3196 15.8017 13.1966 15.8018C13.0736 15.8019 12.9519 15.8263 12.8383 15.8735C12.7248 15.9207 12.6216 15.9899 12.5348 16.077C12.5348 16.077 11.2537 17.3587 9.8193 18.7926C9.39554 19.2165 8.89241 19.5528 8.33864 19.7822C7.78488 20.0117 7.19134 20.1298 6.59193 20.1298C5.99251 20.1298 5.39897 20.0117 4.84521 19.7822C4.29145 19.5528 3.78831 19.2165 3.36455 18.7926L3.20744 18.6355C2.7835 18.2117 2.44721 17.7086 2.21776 17.1548C1.98832 16.601 1.87022 16.0075 1.87022 15.4081C1.87022 14.8087 1.98832 14.2151 2.21776 13.6614C2.44721 13.1076 2.7835 12.6045 3.20744 12.1807C4.64127 10.7463 5.92302 9.46516 5.92302 9.46516C6.00984 9.3783 6.0787 9.27518 6.12567 9.16171C6.17264 9.04823 6.1968 8.92662 6.19677 8.80381C6.19674 8.681 6.17252 8.55939 6.1255 8.44594C6.07847 8.33249 6.00956 8.22941 5.9227 8.14259C5.83584 8.05577 5.73273 7.98691 5.61925 7.93994C5.50578 7.89297 5.38416 7.86881 5.26135 7.86884C5.13854 7.86887 5.01694 7.89309 4.90349 7.94011C4.79003 7.98713 4.68696 8.05604 4.60013 8.14291V8.14293ZM13.8739 6.80323L6.80451 13.8733C6.62917 14.0486 6.53066 14.2864 6.53066 14.5344C6.53066 14.7824 6.62917 15.0202 6.8045 15.1955C6.97984 15.3709 7.21765 15.4694 7.46562 15.4694C7.71359 15.4694 7.9514 15.3709 8.12674 15.1955L15.1968 8.12609C15.2838 8.03926 15.3528 7.93614 15.4 7.82261C15.4471 7.70908 15.4714 7.58738 15.4714 7.46447C15.4715 7.34155 15.4473 7.21982 15.4003 7.10625C15.3533 6.99268 15.2844 6.88949 15.1974 6.80257C15.1105 6.71565 15.0073 6.64672 14.8938 6.59971C14.7802 6.5527 14.6585 6.52854 14.5355 6.5286C14.4126 6.52866 14.2909 6.55294 14.1774 6.60007C14.0639 6.64719 13.9608 6.71622 13.8739 6.80323ZM17.385 13.872C17.385 13.872 18.6748 12.5828 20.1155 11.1421C21.3222 9.93528 22.0001 8.29853 22.0001 6.5919C22.0001 4.88527 21.3222 3.24852 20.1155 2.04166L19.9584 1.88455C18.7515 0.677882 17.1148 0 15.4081 0C13.7015 0 12.0647 0.677882 10.8579 1.88455C9.42469 3.31839 8.14359 4.59949 8.14359 4.59949C7.96825 4.77483 7.86975 5.01264 7.86975 5.26061C7.86975 5.50858 7.96825 5.74639 8.14359 5.92173C8.31893 6.09707 8.55674 6.19558 8.8047 6.19558C9.05267 6.19558 9.29049 6.09707 9.46583 5.92174C9.46583 5.92174 10.7469 4.64064 12.1807 3.20742C12.6045 2.78349 13.1076 2.44719 13.6614 2.21775C14.2152 1.98831 14.8087 1.87022 15.4081 1.87022C16.0075 1.87022 16.6011 1.98831 17.1548 2.21775C17.7086 2.44719 18.2117 2.78349 18.6355 3.20742L18.7926 3.36453C19.2165 3.78829 19.5528 4.29143 19.7823 4.84519C20.0117 5.39895 20.1298 5.9925 20.1298 6.59191C20.1298 7.19133 20.0117 7.78487 19.7823 8.33863C19.5528 8.89239 19.2165 9.39553 18.7926 9.81929C17.3519 11.26 16.0627 12.5498 16.0627 12.5498C15.888 12.7253 15.79 12.9629 15.7903 13.2105C15.7906 13.4581 15.8891 13.6955 16.0642 13.8706C16.2393 14.0457 16.4767 14.1442 16.7243 14.1444C16.9719 14.1447 17.2095 14.0468 17.385 13.8721V13.872Z" fill="fill"/>
</svg>
