<svg width="14" height="16" viewBox="0 0 14 16" fill="none" xmlns="http://www.w3.org/2000/svg">
<path d="M7 0C4.46198 0 2.4 2.11485 2.4 4.71795V6.15385H1.4C0.63478 6.15385 0 6.8049 0 7.58974V14.5641C0 15.3489 0.63478 16 1.4 16H12.6C13.3652 16 14 15.3489 14 14.5641V7.58974C14 6.8049 13.3652 6.15385 12.6 6.15385H11.6V4.71795C11.6 2.11485 9.53802 0 7 0ZM7 1.23077C8.89398 1.23077 10.4 2.77541 10.4 4.71795V6.15385H3.6V4.71795C3.6 2.77541 5.10602 1.23077 7 1.23077ZM1.4 7.38462H12.6C12.7212 7.38462 12.8 7.46545 12.8 7.58974V14.5641C12.8 14.6884 12.7212 14.7692 12.6 14.7692H1.4C1.27882 14.7692 1.2 14.6884 1.2 14.5641V7.58974C1.2 7.46545 1.27882 7.38462 1.4 7.38462Z" fill="fill"/>
</svg>
