<svg width="22" height="22" viewBox="0 0 22 22" fill="none" xmlns="http://www.w3.org/2000/svg">
<path d="M7.30333 7.33333C7.30069 6.52249 7.0288 5.73539 6.5302 5.09516C6.0316 4.45494 5.33441 3.99771 4.5477 3.795V0.916667C4.5477 0.673552 4.45093 0.440394 4.27867 0.268486C4.10641 0.0965773 3.87277 0 3.62916 0C3.38555 0 3.15191 0.0965773 2.97965 0.268486C2.80739 0.440394 2.71062 0.673552 2.71062 0.916667V3.795C1.93227 4.00609 1.24516 4.46692 0.755285 5.10638C0.265411 5.74584 0 6.52841 0 7.33333C0 8.13826 0.265411 8.92082 0.755285 9.56029C1.24516 10.1997 1.93227 10.6606 2.71062 10.8717V21.0833C2.71062 21.3264 2.80739 21.5596 2.97965 21.7315C3.15191 21.9034 3.38555 22 3.62916 22C3.87277 22 4.10641 21.9034 4.27867 21.7315C4.45093 21.5596 4.5477 21.3264 4.5477 21.0833V10.8717C5.33441 10.669 6.0316 10.2117 6.5302 9.5715C7.0288 8.93128 7.30069 8.14418 7.30333 7.33333ZM3.62916 9.16667C3.26582 9.16667 2.91064 9.05914 2.60853 8.85769C2.30642 8.65625 2.07096 8.36992 1.93192 8.03492C1.79287 7.69992 1.75649 7.3313 1.82738 6.97567C1.89826 6.62004 2.07322 6.29337 2.33015 6.03697C2.58707 5.78058 2.9144 5.60597 3.27076 5.53523C3.62712 5.46449 3.9965 5.50079 4.33218 5.63955C4.66786 5.77831 4.95478 6.0133 5.15664 6.31479C5.3585 6.61628 5.46624 6.97073 5.46624 7.33333C5.46624 7.81956 5.27269 8.28588 4.92817 8.6297C4.58365 8.97351 4.11638 9.16667 3.62916 9.16667ZM11.896 12.9617V0.916667C11.896 0.673552 11.7993 0.440394 11.627 0.268486C11.4547 0.0965773 11.2211 0 10.9775 0C10.7339 0 10.5002 0.0965773 10.328 0.268486C10.1557 0.440394 10.059 0.673552 10.059 0.916667V12.9617C9.28061 13.1728 8.5935 13.6336 8.10362 14.273C7.61375 14.9125 7.34834 15.6951 7.34834 16.5C7.34834 17.3049 7.61375 18.0875 8.10362 18.727C8.5935 19.3664 9.28061 19.8272 10.059 20.0383V21.0833C10.059 21.3264 10.1557 21.5596 10.328 21.7315C10.5002 21.9034 10.7339 22 10.9775 22C11.2211 22 11.4547 21.9034 11.627 21.7315C11.7993 21.5596 11.896 21.3264 11.896 21.0833V20.0383C12.6744 19.8272 13.3615 19.3664 13.8514 18.727C14.3412 18.0875 14.6067 17.3049 14.6067 16.5C14.6067 15.6951 14.3412 14.9125 13.8514 14.273C13.3615 13.6336 12.6744 13.1728 11.896 12.9617ZM10.9775 18.3333C10.6142 18.3333 10.259 18.2258 9.95687 18.0244C9.65476 17.8229 9.4193 17.5366 9.28025 17.2016C9.14121 16.8666 9.10483 16.498 9.17571 16.1423C9.2466 15.7867 9.42156 15.46 9.67848 15.2036C9.9354 14.9472 10.2627 14.7726 10.6191 14.7019C10.9755 14.6312 11.3448 14.6675 11.6805 14.8062C12.0162 14.945 12.3031 15.18 12.505 15.4815C12.7068 15.7829 12.8146 16.1374 12.8146 16.5C12.8146 16.9862 12.621 17.4525 12.2765 17.7964C11.932 18.1402 11.4647 18.3333 10.9775 18.3333ZM22 5.5C21.9974 4.68916 21.7255 3.90205 21.2269 3.26183C20.7283 2.62161 20.0311 2.16437 19.2444 1.96167V0.916667C19.2444 0.673552 19.1476 0.440394 18.9753 0.268486C18.8031 0.0965773 18.5694 0 18.3258 0C18.0822 0 17.8486 0.0965773 17.6763 0.268486C17.5041 0.440394 17.4073 0.673552 17.4073 0.916667V1.96167C16.6289 2.17276 15.9418 2.63358 15.452 3.27305C14.9621 3.91251 14.6967 4.69507 14.6967 5.5C14.6967 6.30493 14.9621 7.08749 15.452 7.72695C15.9418 8.36642 16.6289 8.82724 17.4073 9.03833V21.0833C17.4073 21.3264 17.5041 21.5596 17.6763 21.7315C17.8486 21.9034 18.0822 22 18.3258 22C18.5694 22 18.8031 21.9034 18.9753 21.7315C19.1476 21.5596 19.2444 21.3264 19.2444 21.0833V9.03833C20.0311 8.83563 20.7283 8.3784 21.2269 7.73817C21.7255 7.09795 21.9974 6.31084 22 5.5ZM18.3258 7.33333C17.9625 7.33333 17.6073 7.22581 17.3052 7.02436C17.0031 6.82291 16.7676 6.53658 16.6286 6.20159C16.4895 5.86659 16.4532 5.49797 16.524 5.14233C16.5949 4.7867 16.7699 4.46003 17.0268 4.20364C17.2837 3.94724 17.6111 3.77263 17.9674 3.70189C18.3238 3.63115 18.6932 3.66746 19.0289 3.80622C19.3645 3.94498 19.6515 4.17996 19.8533 4.48145C20.0552 4.78295 20.1629 5.1374 20.1629 5.5C20.1629 5.98623 19.9694 6.45255 19.6248 6.79636C19.2803 7.14018 18.8131 7.33333 18.3258 7.33333Z" fill="fill"/>
</svg>
