<svg width="18" height="13" viewBox="0 0 18 13" fill="none" xmlns="http://www.w3.org/2000/svg">
<path d="M9 10.2895C8.23685 10.2895 7.49083 10.0632 6.8563 9.63923C6.22176 9.21524 5.7272 8.61261 5.43515 7.90755C5.1431 7.20249 5.06669 6.42666 5.21558 5.67818C5.36446 4.92969 5.73195 4.24216 6.27158 3.70253C6.81121 3.1629 7.49874 2.7954 8.24723 2.64652C8.99572 2.49764 9.77155 2.57405 10.4766 2.86609C11.1817 3.15814 11.7843 3.6527 12.2083 4.28724C12.6323 4.92178 12.8586 5.66779 12.8586 6.43094C12.8586 7.4543 12.452 8.43574 11.7284 9.15936C11.0048 9.88299 10.0234 10.2895 9 10.2895ZM9 3.85857C8.49123 3.85857 7.99389 4.00943 7.57086 4.29209C7.14784 4.57475 6.81813 4.9765 6.62343 5.44654C6.42874 5.91658 6.37779 6.4338 6.47705 6.93279C6.57631 7.43178 6.8213 7.89014 7.18106 8.24989C7.54081 8.60964 7.99916 8.85464 8.49815 8.95389C8.99715 9.05315 9.51437 9.00221 9.98441 8.80751C10.4544 8.61281 10.8562 8.28311 11.1389 7.86008C11.4215 7.43706 11.5724 6.93971 11.5724 6.43094C11.5724 5.74871 11.3014 5.09441 10.8189 4.612C10.3365 4.12958 9.68224 3.85857 9 3.85857Z" fill="fill"/>
<path d="M9 12.8619C4.20895 12.8619 0.273209 7.03545 0.106005 6.78465C0.0368544 6.67964 0 6.55667 0 6.43094C0 6.30522 0.0368544 6.18225 0.106005 6.07724C0.273209 5.82644 4.20895 0 9 0C13.7911 0 17.7268 5.82644 17.894 6.07724C17.9631 6.18225 18 6.30522 18 6.43094C18 6.55667 17.9631 6.67964 17.894 6.78465C17.7268 7.03545 13.7911 12.8619 9 12.8619ZM1.43078 6.43094C2.33754 7.65282 5.52086 11.5757 9 11.5757C12.4791 11.5757 15.6625 7.65282 16.5692 6.43094C15.6625 5.20906 12.4791 1.28619 9 1.28619C5.52086 1.28619 2.33754 5.20906 1.43078 6.43094Z" fill="fill"/>
</svg>
