<svg width="22" height="22" viewBox="0 0 22 22" fill="none" xmlns="http://www.w3.org/2000/svg">
<path d="M22 9.18357C22 8.99816 21.9305 8.83592 21.8148 8.72004L20.2172 7.12088C20.032 6.93547 19.7542 6.86595 19.4995 6.95865L17.6241 7.67711L18.4113 5.91572C18.5271 5.66078 18.4576 5.35949 18.2724 5.17408L16.235 3.13458C16.0498 2.94917 15.7951 2.90282 15.5636 2.97235L14.4985 3.29681L14.8227 2.23071C14.8921 1.99895 14.8227 1.74401 14.6606 1.5586L13.2946 0.191204C13.0399 -0.0637345 12.6 -0.0637345 12.3453 0.191204L6.78871 5.77667L6.60349 5.61443C6.34881 5.35949 5.90891 5.35949 5.65423 5.61443L4.49659 6.75007C3.57049 7.70029 3.38527 9.16039 4.07985 10.3192L5.63107 12.8918C5.79314 13.1699 5.72368 13.5407 5.46901 13.7493L1.04685 17.1562C0.421726 17.6429 0.0512836 18.3613 0.00497829 19.1262C-0.041327 19.891 0.236505 20.6558 0.792169 21.212C1.30153 21.7219 1.99611 22 2.71384 22C2.76014 22 2.8296 22 2.87591 22C3.6631 21.9536 4.38083 21.5597 4.84388 20.9571L8.24732 16.5536C8.4557 16.2987 8.82614 16.2291 9.10397 16.3914L11.6971 17.9442C12.8315 18.6395 14.3133 18.454 15.2394 17.5038L16.3971 16.3682C16.5128 16.2523 16.5823 16.0669 16.5823 15.9047C16.5823 15.7193 16.5128 15.557 16.3971 15.4411L16.235 15.2789L21.8148 9.69344C21.9305 9.53121 22 9.36897 22 9.18357ZM14.2902 16.5536C13.7808 17.0635 12.9936 17.1562 12.3685 16.7854L9.79855 15.2326C8.91875 14.7227 7.80742 14.9313 7.1823 15.7193L3.77886 20.1227C3.54733 20.424 3.17689 20.6326 2.7833 20.6558C2.3897 20.679 1.99611 20.5399 1.71827 20.2618C1.44044 19.9837 1.30153 19.6129 1.32468 19.1957C1.34783 18.8017 1.53305 18.454 1.85719 18.1991L6.2562 14.7922C7.06654 14.1664 7.27491 13.054 6.7424 12.1733L5.23748 9.62391C4.86704 8.99816 4.95965 8.21017 5.46901 7.70029L6.14043 7.02818L14.9616 15.8815L14.2902 16.5536ZM15.2857 14.2823L7.73797 6.72689L12.8315 1.62813L13.4335 2.23071L12.8547 4.10798C12.7852 4.33974 12.8547 4.59468 13.0168 4.78009C13.202 4.9655 13.4567 5.01185 13.6882 4.94232L15.5636 4.36292L16.9527 5.75349L15.7025 8.55781C15.5867 8.81275 15.633 9.09086 15.8182 9.29945C16.0035 9.50803 16.2813 9.55438 16.536 9.46168L19.4995 8.34922L20.333 9.18357L15.2857 14.2823Z" fill="fill"/>
</svg>
