<svg width="24" height="18" viewBox="0 0 24 18" fill="none" xmlns="http://www.w3.org/2000/svg">
<path d="M23.0674 0.694048C22.5078 0.392288 21.7927 0.422464 21.2332 0.754401L17.1606 3.31936V1.20704C17.1606 0.543169 16.601 0 15.9171 0H1.24352C0.559586 0 0 0.543169 0 1.20704V16.793C0 17.4568 0.559586 18 1.24352 18H15.9171C16.601 18 17.1606 17.4568 17.1606 16.793V14.6806L21.2332 17.2456C21.513 17.4267 21.8549 17.5172 22.1969 17.5172C22.4767 17.5172 22.7876 17.4568 23.0363 17.306C23.6269 17.0042 24 16.4007 24 15.7368V2.2632C24 1.59933 23.658 0.995809 23.0674 0.694048ZM15.2953 16.1894H1.86529V1.81056H15.2953V16.1894ZM22.1347 15.6764L17.1606 12.5381V5.46186L22.1658 2.32355L22.1347 15.6764Z" fill="#EAD2C4"/>
</svg>
