<svg width="22" height="19" viewBox="0 0 22 19" fill="none" xmlns="http://www.w3.org/2000/svg">
<path fill-rule="evenodd" clip-rule="evenodd" d="M18.573 14.9066C18.4746 14.9686 18.3688 15.0402 18.2501 15.1247C17.8171 15.4326 17.2152 15.33 16.9084 14.897C16.6005 14.464 16.702 13.8632 17.1361 13.5553C17.8866 13.0228 18.2351 12.8657 19.115 12.5931L19.1503 12.5824C20.2194 12.2958 20.8491 12.4808 21.2393 12.762C21.5707 13.0014 21.7931 13.3489 21.9139 13.799C22.0636 14.356 22.0037 15.0456 21.8444 15.671C21.6402 16.4696 21.2981 17.1485 21.2981 17.1485C21.0597 17.6232 20.4813 17.8156 20.0066 17.5772C19.6389 17.3923 19.4411 17.0031 19.4817 16.6161C18.1164 17.6136 15.8403 18.5961 12.0696 18.9264C7.78994 19.2397 3.55842 17.8242 0.328652 14.9986C-0.0711937 14.649 -0.111843 14.0406 0.237755 13.6418C0.587353 13.242 1.1957 13.2014 1.59554 13.551C4.4383 16.0366 8.162 17.2822 11.9146 17.0074C15.5634 16.6877 17.537 15.7469 18.573 14.9066ZM13.0446 4.82279C13.0371 4.57582 13.0243 4.33204 13.005 4.09149C12.7827 1.35779 9.89394 1.80361 8.79169 2.16604C7.42216 2.6172 7.02659 4.2572 7.02659 4.2572C6.89188 4.77144 6.36588 5.07935 5.85164 4.94465C5.33847 4.80994 5.03057 4.28395 5.16528 3.77078C5.16528 3.77078 5.89977 1.09159 8.19087 0.337874C10.0062 -0.259756 14.5563 -0.568731 14.923 3.93649C15.062 5.6524 14.8589 7.56931 14.8749 9.28629C14.8781 9.60489 14.8845 9.91599 14.9049 10.2164C14.9177 10.2763 14.9252 10.3383 14.9262 10.4024C14.9262 10.4281 14.9262 10.4538 14.9252 10.4794C15.0107 11.3785 15.2331 12.1558 15.8179 12.6797C16.2134 13.0335 16.2466 13.6429 15.8927 14.0385C15.5388 14.4341 14.9294 14.4672 14.5339 14.1133C14.0923 13.7178 13.762 13.2345 13.5193 12.6818C13.0275 13.0292 12.4224 13.3339 11.7606 13.5595C10.5375 13.9765 9.12847 14.1251 7.95459 13.8557C6.57758 13.5403 5.49563 12.6946 5.15565 11.1487C4.79536 9.50547 5.00063 8.27918 5.4967 7.36296C6.24614 5.97633 7.71083 5.24613 9.29097 4.94357C10.6573 4.68164 12.0931 4.73512 13.0446 4.82279ZM13.0243 6.75144C12.2214 6.66591 10.9032 6.59428 9.65339 6.83376C8.6495 7.0262 7.66486 7.39826 7.1891 8.27813C6.86837 8.87149 6.80207 9.67119 7.03514 10.736C7.1955 11.4641 7.73543 11.8308 8.38438 11.9804C9.23539 12.175 10.2532 12.0403 11.1395 11.7378C11.7178 11.541 12.2417 11.2716 12.6159 10.953C12.8094 10.7873 12.9912 10.6419 13.0008 10.457C12.9986 10.4249 12.9954 10.3928 12.9933 10.3608C12.9056 9.24674 12.9794 7.99909 13.0243 6.75144Z" fill="fill"/>
</svg>
