<svg width="22" height="22" viewBox="0 0 22 22" fill="none" xmlns="http://www.w3.org/2000/svg">
<path d="M5.68568 19.0749C4.45104 19.0749 3.41264 18.2107 3.1988 16.9858C2.99288 15.7934 3.61152 14.6731 4.7388 14.197L4.74056 14.1962C5.12336 14.036 5.49648 13.9524 5.87752 13.8732L6.556 13.7368C6.81032 13.6858 7.07696 13.6321 7.25736 13.5951L7.25912 5.8432C7.25912 5.65752 7.28024 5.47712 7.3216 5.30904C7.45624 4.75728 7.86368 4.35688 8.43832 4.20992C8.62048 4.1624 8.8088 4.12456 8.998 4.0876L9.16256 4.05504C9.4644 3.99344 9.71784 3.93096 9.96952 3.87024C10.2538 3.80072 10.538 3.73208 10.8803 3.66256L14.6494 2.90224C14.8984 2.85384 15.1166 2.81248 15.3331 2.79488C16.082 2.74032 16.6936 3.25688 16.7675 4.00928C16.7772 4.09376 16.7825 4.19232 16.7825 4.29176C16.7842 5.90216 16.7842 7.5152 16.7825 9.12648V9.30776C16.7825 9.31832 16.7825 9.32888 16.7825 9.33944V12.1598C16.7825 12.173 16.7825 12.1862 16.7825 12.1986V14.366C16.7825 14.923 16.683 15.3974 16.4771 15.8154C16.119 16.5449 15.5065 17.0509 14.7057 17.2779C14.3378 17.3835 13.9524 17.4451 13.5626 17.4627C12.2804 17.5252 11.1778 16.6514 10.9481 15.3894C10.7457 14.2859 11.3177 13.1639 12.3402 12.6623C12.723 12.474 13.1111 12.3763 13.4411 12.3068L14.0879 12.1713C14.4091 12.1044 14.7699 12.0287 15.019 11.975L15.0198 8.00008C14.8623 8.03176 14.7154 8.06168 14.6265 8.07928C13.8802 8.22712 13.2123 8.36088 12.5453 8.4964L9.0332 9.24616L9.03056 15.8796C9.03056 16.4384 8.94784 16.8916 8.77008 17.3052C8.42776 18.0946 7.7968 18.641 6.94496 18.8883C6.55688 18.9992 6.16704 19.0617 5.78248 19.074C5.75168 19.074 5.71824 19.0749 5.68568 19.0749ZM5.42168 15.8198C4.86992 16.0538 4.90776 16.5414 4.9324 16.6848C5.0028 17.0817 5.31608 17.3263 5.72176 17.314C5.96552 17.3061 6.2128 17.2665 6.45832 17.1961C6.80592 17.0949 7.02152 16.9127 7.1544 16.6074C7.2336 16.4234 7.27056 16.1902 7.27056 15.8778V15.3886C7.15088 15.4123 7.02416 15.4378 6.90008 15.4625L6.2348 15.5971C5.92944 15.6596 5.6584 15.7203 5.42168 15.8198ZM15.0225 13.7738C14.8368 13.8125 14.6362 13.8547 14.4487 13.8943L13.8107 14.0281C13.5837 14.0765 13.3276 14.1381 13.1182 14.2419C12.7433 14.4258 12.6289 14.7919 12.6799 15.0735C12.7503 15.459 13.097 15.7309 13.4825 15.7054C13.7403 15.6939 13.9823 15.6552 14.2243 15.5857C14.5508 15.4933 14.7576 15.3252 14.8975 15.041C14.9829 14.8676 15.0225 14.6538 15.0225 14.3669V13.7738ZM9.01912 5.88016V7.44832L12.1898 6.7716C12.8691 6.63432 13.5397 6.49968 14.2094 6.36768C14.5746 6.29464 14.835 6.24272 15.0242 6.20752C15.0242 5.67864 15.0242 5.15064 15.0234 4.62264C15.0234 4.62264 15.0216 4.62264 15.0198 4.62264L11.2288 5.38736C10.9102 5.4516 10.648 5.51584 10.3858 5.5792C10.1138 5.6452 9.84192 5.7112 9.51544 5.77896L9.33856 5.81416C9.2312 5.83528 9.12472 5.8564 9.01912 5.88016ZM15.0163 4.19584C15.0163 4.1976 15.0163 4.19936 15.0163 4.20112C15.0172 4.19936 15.0172 4.1976 15.0163 4.19584Z" fill="fill"/>
<path d="M15.847 22H6.54544C6.10192 22 5.58448 21.9956 5.0556 21.9454C4.71064 21.9129 4.25304 21.8583 3.79456 21.7193C2.27656 21.2634 1.1748 20.3078 0.52096 18.8804C0.15928 18.0902 0.06688 17.2674 0.02376 16.566L0.00176 16.2184L0 5.84584C0 5.80272 0.00704 5.73144 0.0132 5.68832C0.02024 5.36888 0.05104 5.00016 0.10208 4.64728C0.15928 4.25656 0.25256 3.74528 0.46992 3.2384C1.03488 1.9096 2.0108 0.96184 3.3704 0.4224C4.09024 0.13816 4.81624 0.06248 5.49384 0.02376L5.86872 0.00264L16.0679 0C16.104 0 16.1929 0.00792 16.2281 0.01232C16.735 0.02728 17.2093 0.07216 17.6475 0.15224C18.3506 0.27808 18.993 0.528 19.5545 0.89408C20.7099 1.65176 21.4535 2.69368 21.7677 3.99168C21.9155 4.59888 21.9894 5.2492 21.9938 5.97432C21.9956 5.9972 21.9965 6.02096 21.9965 6.04384L22 15.6526C22.0009 16.1621 21.9868 16.8344 21.8724 17.519C21.7818 18.0506 21.663 18.4712 21.4975 18.847C21.0883 19.7701 20.4468 20.5242 19.5906 21.0874C18.9253 21.5257 18.1702 21.7941 17.2832 21.9085C16.801 21.9692 16.3178 22 15.847 22ZM2.12168 18.1474C2.56168 19.1083 3.27536 19.7261 4.30232 20.035C4.61208 20.1282 4.95616 20.1687 5.22104 20.1934C5.67424 20.2365 6.1424 20.24 6.54544 20.24H15.847C16.2457 20.24 16.654 20.2136 17.0606 20.1626C17.6739 20.0834 18.1861 19.9056 18.6226 19.6178C19.1998 19.2377 19.6134 18.7519 19.888 18.1333C19.9927 17.8957 20.0719 17.607 20.137 17.226C20.2294 16.6725 20.2409 16.0952 20.24 15.6534L20.2374 6.1116C20.2356 6.0896 20.2347 6.06672 20.2347 6.04384C20.2347 5.43136 20.1766 4.89544 20.057 4.40528C19.8484 3.54376 19.3688 2.87672 18.5909 2.3672C18.2248 2.12784 17.8138 1.96944 17.336 1.88408C16.9849 1.82072 16.5959 1.78376 16.148 1.77144C16.1207 1.77056 16.0424 1.76352 16.0151 1.76L5.5968 1.78024C5.06352 1.81104 4.5056 1.8656 4.01808 2.05832C3.10024 2.42264 2.46928 3.03424 2.08912 3.9292C1.98 4.18176 1.9052 4.48008 1.8436 4.89984C1.80136 5.19464 1.7776 5.49296 1.76792 5.79392C1.76792 5.8168 1.76352 5.8608 1.76 5.89864L1.78024 16.4525C1.81544 17.0254 1.88144 17.622 2.12168 18.1474Z" fill="fill"/>
</svg>
