<svg width="25" height="25" viewBox="0 0 25 25" fill="none" xmlns="http://www.w3.org/2000/svg">
<path d="M15 17H6C5.644 17 5.314 16.81 5.135 16.502C4.956 16.194 4.955 15.814 5.132 15.504L9.132 8.504C9.31 8.192 9.641 8 10 8H19C19.356 8 19.686 8.19 19.865 8.498C20.044 8.806 20.045 9.186 19.868 9.496L15.868 16.496C15.69 16.808 15.359 17 15 17ZM7.723 15H14.42L17.277 10H10.58L7.723 15Z" fill="fill"/>
<path d="M12.5 25C5.607 25 0 19.393 0 12.5C0 5.607 5.607 0 12.5 0C19.393 0 25 5.607 25 12.5C25 19.393 19.393 25 12.5 25ZM12.5 2C6.71 2 2 6.71 2 12.5C2 18.29 6.71 23 12.5 23C18.29 23 23 18.29 23 12.5C23 6.71 18.29 2 12.5 2Z" fill="fill"/>
</svg>
