<svg width="20" height="22" viewBox="0 0 20 22" fill="none" xmlns="http://www.w3.org/2000/svg">
<path d="M4.5765 19.9665C4.52209 19.9465 4.42698 19.8982 4.36515 19.8592C4.22776 19.7724 2.32189 17.879 2.19528 17.7034C2.02717 17.4703 1.97323 17.2734 2.0236 17.0767C2.06406 16.9187 2.14205 16.8017 2.31417 16.6409C2.46851 16.4967 2.47373 16.4932 4.31236 15.3129C6.36783 13.9935 6.66487 13.8169 6.95187 13.744C7.11658 13.7022 7.31764 13.7146 7.44422 13.7744C7.57514 13.8363 8.15836 14.4196 8.22012 14.5504C8.27467 14.6659 8.29167 14.8667 8.25884 15.0076C8.1886 15.3091 8.04882 15.5458 6.72834 17.6003C6.33756 18.2083 5.93706 18.8355 5.83834 18.9941C5.45084 19.6166 5.27224 19.8329 5.0597 19.9369C4.91625 20.0072 4.71974 20.0192 4.5765 19.9665ZM14.6247 8.24062C14.4884 8.1935 14.3535 8.08453 14.0736 7.79545C13.9163 7.63292 13.8183 7.51447 13.7852 7.44661C13.7241 7.32164 13.7031 7.14641 13.7326 7.00882C13.7991 6.69861 13.9314 6.47241 15.2231 4.46015C15.6575 3.78343 16.112 3.07123 16.2332 2.87747C16.3543 2.6837 16.5075 2.4573 16.5736 2.37435C16.9421 1.91208 17.3174 1.86832 17.7695 2.23492C17.8488 2.29918 18.325 2.76559 18.8277 3.27138C19.7635 4.21285 19.8686 4.3329 19.9519 4.55581C20.0079 4.70576 20.0006 4.89644 19.9335 5.03368C19.8207 5.26437 19.611 5.44497 19.0248 5.81621C18.8364 5.93555 18.1985 6.34435 17.6073 6.72464C16.0064 7.75443 15.5261 8.05127 15.2806 8.16266C15.0323 8.27531 14.8037 8.30249 14.6247 8.24062Z" fill="fill"/>
<path d="M9.57582 21.9814C9.16595 21.9216 8.93714 21.7123 8.89221 21.356C8.8654 21.1434 8.90263 20.8899 9.07537 20.1091C9.16426 19.7073 9.30696 19.0541 9.39247 18.6576C9.94381 16.1011 10.0175 15.8486 10.2819 15.6094C10.4444 15.4625 10.5158 15.4471 11.0328 15.4471C11.3602 15.4471 11.5045 15.4543 11.5695 15.4739C11.6973 15.5124 11.838 15.6236 11.9263 15.7559C12.1042 16.0225 12.1727 16.2864 12.7258 18.8403C12.8586 19.4535 13.0054 20.1197 13.052 20.3206C13.0985 20.5215 13.1504 20.7594 13.1673 20.8493C13.2037 21.0435 13.2089 21.3661 13.1776 21.4851C13.1281 21.6728 13.0042 21.816 12.8174 21.9016C12.6096 21.9968 12.5242 22.0015 11.0544 21.9997C10.3041 21.9988 9.63873 21.9906 9.57582 21.9814ZM7.02911 8.2641C6.72126 8.20536 6.46307 8.05462 4.45448 6.76087C3.92082 6.41714 3.28533 6.01105 3.04228 5.85847C2.35982 5.43003 2.16834 5.27182 2.05322 5.04131C1.94637 4.82736 1.97967 4.57501 2.14772 4.32511C2.22763 4.20627 4.09467 2.3274 4.25274 2.20676C4.59651 1.94436 4.89647 1.92289 5.183 2.14019C5.34784 2.2652 5.51613 2.4767 5.76986 2.8777C5.88568 3.06076 6.29707 3.70365 6.68404 4.30635C8.00936 6.37048 8.14617 6.5993 8.24022 6.9091C8.29703 7.09625 8.28752 7.30036 8.21548 7.43999C8.14289 7.58068 7.55048 8.16414 7.42289 8.22062C7.32915 8.2621 7.13247 8.28382 7.02911 8.2641Z" fill="fill"/>
<path d="M16.9487 19.9261C16.7104 19.807 16.5504 19.6191 16.1549 18.9941C16.0144 18.772 15.5899 18.1088 15.2117 17.5202C14.4774 16.3776 14.1529 15.8614 13.9751 15.5528C13.7059 15.0857 13.6527 14.7892 13.7916 14.5286C13.8735 14.3747 14.4097 13.8418 14.5512 13.7735C14.6902 13.7064 14.8991 13.6992 15.0831 13.7551C15.3797 13.8452 15.5963 13.9752 17.6446 15.2925C18.247 15.6798 18.89 16.0907 19.0736 16.2055C19.2571 16.3203 19.4733 16.4632 19.5539 16.5231C20.0427 16.8861 20.1273 17.2543 19.82 17.6805C19.7106 17.8322 17.7948 19.744 17.6643 19.8316C17.4142 19.9996 17.1623 20.0329 16.9487 19.9261ZM0.514329 13.1331C0.225267 13.0551 0.0681795 12.8365 0.0151233 12.4384C0.00160757 12.337 -0.00292136 11.8131 0.00182858 10.9004C0.00979065 9.37061 0.00596894 9.41961 0.136522 9.17358C0.236162 8.98581 0.391885 8.8864 0.640629 8.85178C0.82409 8.82625 1.05894 8.85128 1.45715 8.93872C1.62095 8.9747 2.37317 9.13902 3.12874 9.30389C4.68719 9.64396 5.43345 9.81359 5.67855 9.88348C6.15733 10.02 6.38672 10.1671 6.4987 10.4092C6.53656 10.4911 6.53916 10.5289 6.53916 10.9966V11.4964L6.48609 11.6045C6.38532 11.8099 6.16094 11.9665 5.81817 12.0708C5.51079 12.1643 4.93343 12.2967 3.16717 12.679C2.62294 12.7968 1.95719 12.9436 1.68772 13.0052C1.41825 13.0669 1.13559 13.1268 1.05959 13.1383C0.880637 13.1656 0.625629 13.1631 0.514329 13.1331ZM10.4846 6.51985C10.2118 6.41997 10.065 6.23064 9.93323 5.80888C9.8565 5.56322 9.66575 4.73537 9.3633 3.3355C9.22966 2.71694 9.06541 1.96862 8.9983 1.67255C8.86393 1.07982 8.82726 0.833919 8.84669 0.656056C8.88314 0.322354 9.05037 0.132527 9.39376 0.0350594C9.50839 0.0025217 9.6223 1.04814e-08 10.9775 1.04814e-08C12.5633 1.04814e-08 12.558 -0.000314167 12.7868 0.107846C12.9335 0.177189 13.0651 0.317851 13.1137 0.45716C13.1414 0.536686 13.1484 0.613389 13.1473 0.826665C13.1462 1.06336 13.1376 1.1329 13.0766 1.40341C13.0384 1.57259 12.8732 2.32524 12.7093 3.07596C12.1449 5.66281 12.1001 5.84342 11.9513 6.13042C11.8682 6.29084 11.7407 6.42539 11.6116 6.48906C11.5181 6.53511 11.5022 6.53655 11.0352 6.541C10.6724 6.54445 10.5376 6.53928 10.4846 6.51985Z" fill="fill"/>
</svg>
