<svg width="22" height="19" viewBox="0 0 22 19" fill="none" xmlns="http://www.w3.org/2000/svg">
<path fill-rule="evenodd" clip-rule="evenodd" d="M5.50297 7.25983C5.7988 8.24073 6.15691 9.16077 6.54615 10.0483C7.21566 11.6378 7.66719 12.4786 8.2914 13.5218L8.36062 13.6348C9.10559 14.8524 9.93828 16.2133 11.2822 17.1043C12.2943 17.7738 13.5257 18.1163 14.709 18.1163C16.3764 18.1163 17.8089 17.3845 18.7289 16.5268C19.632 15.686 20.8011 14.0653 20.8011 10.9032C20.8011 9.87576 21.23 8.98543 21.5792 8.26067C21.6004 8.21661 21.6214 8.17316 21.6419 8.13032C21.6419 8.11475 21.6575 8.08361 21.6886 8.02134C21.8287 7.70994 22 7.30512 22 6.9003C22 6.60447 21.9221 6.26194 21.7197 5.96611C21.4083 5.43673 20.8478 5.24989 20.3326 5.24989C19.1337 5.24989 18.3071 6.09067 17.8867 6.94843L17.7466 7.22869C17.5753 6.97957 17.404 6.71488 17.2639 6.48133C16.828 5.7184 16.5788 5.2046 16.3609 4.54925C16.1896 4.03544 16.0495 3.44378 15.956 2.9597C15.6914 1.43243 15.2554 0.934195 14.5378 0.747356C14.0084 0.607227 13.3856 0.716216 12.9326 1.01204C12.6227 0.311398 12.0933 0 11.3912 0C10.3948 0 9.49028 0.653936 9.49028 1.76082C9.49028 1.87885 9.50133 1.99689 9.51412 2.13353C9.51651 2.15911 9.51897 2.18534 9.52142 2.21234C9.39686 2.1812 9.25673 2.16563 9.11661 2.16563C8.04228 2.16563 7.2468 2.91299 7.2468 3.92645C7.2468 4.16 7.27794 4.42469 7.35579 4.73608C7.26237 4.72051 7.16895 4.72051 7.07553 4.72051C6.54615 4.75165 6.06349 4.95406 5.71953 5.37445C5.37841 5.77927 5.23828 6.40206 5.50297 7.25983ZM6.3904 6.97957C6.25027 6.52804 6.26584 6.1855 6.43711 5.96752C6.60838 5.76512 6.84193 5.6717 7.12218 5.65613C7.60485 5.64056 7.79169 5.98309 8.07195 6.87058C8.24322 7.4311 8.58576 8.24215 8.78817 8.69367C9.05285 9.23862 9.42653 9.97041 9.5978 10.2209C9.73793 10.4389 9.86249 10.5012 10.0026 10.5012C10.2517 10.5012 10.4386 10.3611 10.4386 10.112C10.4386 9.98583 10.3251 9.78404 10.2456 9.64279C10.2368 9.6271 10.2284 9.61216 10.2206 9.59814C10.1924 9.5449 10.1579 9.48094 10.1192 9.40907C9.96523 9.12363 9.7439 8.7132 9.58223 8.35255C9.36425 7.85431 9.11513 7.23152 8.91272 6.66959C8.78817 6.34262 8.64804 5.87554 8.50791 5.40845C8.28994 4.69224 8.18094 4.25625 8.18094 3.92787C8.18094 3.42963 8.55462 3.10266 9.11513 3.10266C9.51995 3.10266 9.78464 3.30507 9.95591 4.03686C10.096 4.70636 10.3452 5.79767 10.7033 6.65402C10.9368 7.21453 11.2794 7.9633 11.4818 8.33698C11.5224 8.40819 11.5648 8.47607 11.6034 8.53791C11.6829 8.66538 11.7464 8.76723 11.7464 8.81965C11.7464 8.88894 11.6646 8.98339 11.561 9.10302C11.5017 9.17157 11.4352 9.24838 11.3728 9.33346C11.2638 9.47359 11.2171 9.56701 11.2171 9.67599C11.2171 9.76941 11.2794 9.86283 11.3728 9.98739C11.4662 10.112 11.5596 10.2365 11.6686 10.2365C11.7464 10.2365 11.7932 10.2054 11.8399 10.1431C12.3225 9.53587 12.8519 9.11548 13.4606 8.77152C14.1768 8.36671 14.91 8.1643 15.4861 8.03974C15.7663 7.97746 15.8442 7.91518 15.8442 7.75948C15.8442 7.57264 15.704 7.46365 15.5172 7.44808C15.4027 7.43536 15.2986 7.44343 15.1454 7.4553C15.1112 7.45796 15.0744 7.4608 15.0345 7.46365C14.8788 7.47922 14.801 7.40137 14.7076 7.19896C14.664 7.10701 14.6141 7.00525 14.5595 6.89416C14.2632 6.29041 13.8315 5.41099 13.5554 4.33268C13.4153 3.78774 13.2907 3.21165 13.2129 2.46288C13.1661 2.12034 13.2284 1.99578 13.3997 1.84008C13.6177 1.65324 14.0069 1.57539 14.3027 1.65324C14.6609 1.74666 14.8477 2.02692 15.0345 3.11823C15.128 3.63204 15.2837 4.28597 15.4705 4.84791C15.704 5.56412 15.9999 6.15719 16.4514 6.95126C16.7005 7.38722 17.0119 7.83874 17.3389 8.27612C17.2766 8.46296 17.1676 8.58752 16.8095 8.88334C16.4514 9.17917 16.0933 9.49057 15.7663 10.0667C15.5328 10.487 15.4238 10.9541 15.4238 11.2655C15.4238 11.5614 15.4861 11.6236 15.6729 11.6236C15.9999 11.6236 16.2646 11.5614 16.2801 11.4212C16.358 10.8607 16.4514 10.5026 16.7628 10.0808C16.9496 9.84726 17.2766 9.55143 17.5413 9.31789C18.0395 8.91307 18.2108 8.67952 18.3821 8.10343C18.4599 7.83874 18.5533 7.58963 18.6779 7.35608C18.9737 6.81113 19.5031 6.18833 20.3297 6.18833C20.5944 6.18833 20.8124 6.26618 20.9525 6.48416C21.0304 6.60872 21.0615 6.77999 21.0615 6.90455C21.0615 7.17144 20.8779 7.53716 20.7798 7.7328L20.7657 7.7609C20.7483 7.79798 20.7304 7.83608 20.712 7.87514C20.3678 8.6069 19.8626 9.68063 19.8626 10.9074C19.8626 13.727 18.8661 15.1297 18.0862 15.8459C17.3233 16.5621 16.123 17.1864 14.7061 17.1864C13.6941 17.1864 12.6495 16.8905 11.7932 16.33C10.6185 15.552 9.87599 14.3392 9.12887 13.1189L9.08258 13.0433C8.47535 12.0313 8.05496 11.2358 7.39961 9.69439C7.03018 8.80125 6.68623 7.92933 6.3904 6.97957ZM11.3911 0.935608C10.9396 0.935608 10.3947 1.16916 10.3947 1.76081C10.3947 2.15006 10.5037 2.72615 10.6126 3.19183C10.7481 3.52018 10.8017 3.75779 10.9099 4.23735C10.951 4.41932 10.9999 4.63612 11.0642 4.90594C11.2043 5.48344 11.3756 5.98168 11.5468 6.41763C11.7492 6.94842 11.9828 7.39995 12.3098 8.00718C12.4655 8.30301 12.5433 8.30301 12.917 8.1006C13.2128 7.9449 13.6488 7.75806 13.9757 7.64907C13.4152 6.43462 12.9481 5.42116 12.7146 4.56481C12.6523 4.31569 12.4343 3.3178 12.372 2.88185C12.3253 2.44589 12.2786 2.07221 12.1696 1.66739C12.0451 1.16916 11.8738 0.935608 11.3911 0.935608Z" fill="fill"/>
<path d="M4.81784 12.1898C4.48804 12.3937 2.73997 13.3094 2.34506 13.4552C2.06338 13.56 1.75765 13.5345 1.57788 13.0023C1.35708 12.3441 1.66706 12.1884 2.10868 12.0171C2.49934 11.8657 4.12003 11.2797 4.49654 11.1778C4.76122 11.107 4.94523 11.1962 5.07262 11.5147C5.21275 11.8643 5.1165 12.0044 4.81784 12.1898Z" fill="fill"/>
<path d="M3.37692 8.47994C2.90699 8.49268 0.955088 8.40917 0.509223 8.36529C0.12139 8.32707 -0.0357244 8.1558 0.00673904 7.59387C0.0520333 6.99089 0.286997 6.95409 0.667753 6.99089C1.10937 7.03335 3.15469 7.36598 3.48025 7.46648C3.81712 7.57122 3.86383 7.72409 3.82278 8.01851C3.77041 8.40068 3.59773 8.47286 3.37692 8.47994Z" fill="fill"/>
<path d="M3.61896 4.52801C3.08109 4.35816 1.48447 3.39141 1.06832 3.14229C0.691815 2.91582 0.64369 2.712 0.905548 2.21517C1.13768 1.77639 1.39529 1.69995 1.77746 1.89811C2.2205 2.12883 3.78457 3.34612 4.08323 3.58674C4.37198 3.81887 4.33234 3.93919 4.18089 4.23785C4.02944 4.53651 3.88789 4.61294 3.61896 4.52801Z" fill="fill"/>
</svg>
