<svg width="22" height="22" viewBox="0 0 22 22" fill="none" xmlns="http://www.w3.org/2000/svg">
<path fill-rule="evenodd" clip-rule="evenodd" d="M2.75 1.83333C2.24492 1.83333 1.83333 2.24492 1.83333 2.75V19.25C1.83333 19.7551 2.24492 20.1667 2.75 20.1667H19.25C19.7551 20.1667 20.1667 19.7551 20.1667 19.25V2.75C20.1667 2.24492 19.7551 1.83333 19.25 1.83333H2.75ZM19.25 22H2.75C1.23383 22 0 20.7662 0 19.25V2.75C0 1.23383 1.23383 0 2.75 0H19.25C20.7662 0 22 1.23383 22 2.75V19.25C22 20.7662 20.7662 22 19.25 22Z" fill="fill"/>
<path fill-rule="evenodd" clip-rule="evenodd" d="M14.6667 22C14.1607 22 13.75 21.5893 13.75 21.0833V13.75C13.75 13.244 14.1607 12.8333 14.6667 12.8333H16.5V11H14.6667C14.1607 11 13.75 10.5893 13.75 10.0833V9.16667C13.75 7.6505 14.9838 6.41667 16.5 6.41667H17.4167V4.58333H16.5C13.9728 4.58333 11.9167 6.63942 11.9167 9.16667V10.0833C11.9167 10.5893 11.506 11 11 11H9.16667V12.8333H11C11.506 12.8333 11.9167 13.244 11.9167 13.75V21.0833C11.9167 21.5893 11.506 22 11 22C10.494 22 10.0833 21.5893 10.0833 21.0833V14.6667H8.25C7.744 14.6667 7.33333 14.256 7.33333 13.75V10.0833C7.33333 9.57733 7.744 9.16667 8.25 9.16667H10.0833C10.0833 5.62833 12.9617 2.75 16.5 2.75H18.3333C18.8393 2.75 19.25 3.16067 19.25 3.66667V7.33333C19.25 7.83933 18.8393 8.25 18.3333 8.25H16.5C15.9949 8.25 15.5833 8.66158 15.5833 9.16667H17.4167C17.9227 9.16667 18.3333 9.57733 18.3333 10.0833V13.75C18.3333 14.256 17.9227 14.6667 17.4167 14.6667H15.5833V21.0833C15.5833 21.5893 15.1727 22 14.6667 22Z" fill="fill"/>
</svg>
