<svg width="22" height="22" viewBox="0 0 22 22" fill="none" xmlns="http://www.w3.org/2000/svg">
<path fill-rule="evenodd" clip-rule="evenodd" d="M22 5.95413C22 2.66825 19.3318 0 16.0459 0H5.95413C2.66826 0 0 2.66825 0 5.95413V16.0459C0 19.3317 2.66826 22 5.95413 22H16.0459C19.3318 22 22 19.3317 22 16.0459V5.95413ZM20.1835 5.95413V16.0459C20.1835 18.3296 18.3296 20.1835 16.0459 20.1835H5.95413C3.67037 20.1835 1.81652 18.3296 1.81652 16.0459V5.95413C1.81652 3.67036 3.67037 1.8165 5.95413 1.8165H16.0459C18.3296 1.8165 20.1835 3.67036 20.1835 5.95413ZM15.9349 10.231C15.617 8.08248 13.9175 6.38303 11.769 6.06514C11.5288 6.0288 11.2866 6.01166 11.0434 6.01166C8.33074 6.01166 6.09844 8.24394 6.09844 10.9566C6.09844 13.6693 8.33074 15.9016 11.0434 15.9016C13.7561 15.9016 15.9884 13.6693 15.9884 10.9566C15.9884 10.7134 15.9712 10.4712 15.9349 10.231ZM14.1385 10.4974C14.1607 10.6498 14.1718 10.8032 14.1718 10.9566C14.1718 12.6722 12.76 14.0851 11.0434 14.0851C9.3278 14.0851 7.91496 12.6722 7.91496 10.9566C7.91496 9.24 9.3278 7.82816 11.0434 7.82816C11.1968 7.82816 11.3502 7.83926 11.5026 7.86146C12.8619 8.0633 13.9367 9.13807 14.1385 10.4974ZM16.5505 4.54129C17.052 4.54129 17.4587 4.94798 17.4587 5.44954C17.4587 5.9511 17.052 6.35779 16.5505 6.35779C16.0489 6.35779 15.6422 5.9511 15.6422 5.44954C15.6422 4.94798 16.0489 4.54129 16.5505 4.54129Z" fill="fill"/>
</svg>
