<svg width="22" height="22" viewBox="0 0 22 22" fill="none" xmlns="http://www.w3.org/2000/svg">
<path d="M21.3079 22H17.0408C16.6613 22 16.3533 21.692 16.3533 21.3125V14.6098C16.3533 12.5638 16.1315 11.6508 14.8179 11.6508C13.6299 11.6508 12.9424 12.1156 12.9424 14.4943V21.3125C12.9424 21.692 12.6344 22 12.2549 22H7.98325C7.60375 22 7.29575 21.692 7.29575 21.3125V7.54233C7.29575 7.16283 7.60375 6.85483 7.98325 6.85483H12.0844C12.4639 6.85483 12.7719 7.16283 12.7719 7.54233V7.65233C13.5988 7.00242 14.7473 6.50925 16.1902 6.50925C21.34 6.50925 22 10.3776 22 13.7472V21.3116C22 21.6911 21.692 21.9991 21.3125 21.9991L21.3079 22ZM17.7283 20.625H20.625V13.7472C20.625 9.47283 19.4223 7.88425 16.1902 7.88425C14.3752 7.88425 13.2046 8.88433 12.7527 9.7405C12.6335 9.966 12.3998 10.1072 12.144 10.1072C11.7645 10.1072 11.3969 9.79917 11.3969 9.41967V8.22983H8.67075V20.6241H11.5674V14.4934C11.5674 13.4503 11.5674 10.2749 14.8179 10.2749C17.7283 10.2749 17.7283 13.0946 17.7283 14.6089V20.625ZM5.30475 22H1.0285C0.649 22 0.341 21.692 0.341 21.3125V7.54325C0.341 7.16375 0.649 6.85575 1.0285 6.85575H5.30475C5.68425 6.85575 5.99225 7.16375 5.99225 7.54325V21.3125C5.99225 21.692 5.68425 22 5.30475 22ZM1.716 20.625H4.61725V8.23075H1.716V20.625ZM3.16433 6.35158C1.419 6.35158 0 4.92158 0 3.16433C0 1.41992 1.419 0 3.16433 0C4.90875 0 6.32775 1.41992 6.32775 3.16433C6.32775 4.92158 4.90783 6.35158 3.16433 6.35158ZM3.16433 1.375C2.17708 1.375 1.375 2.17708 1.375 3.16433C1.375 4.1635 2.17708 4.97658 3.16433 4.97658C4.15067 4.97658 4.95275 4.1635 4.95275 3.16433C4.95275 2.17708 4.14975 1.375 3.16433 1.375Z" fill="fill"/>
</svg>
