<svg width="22" height="18" viewBox="0 0 22 18" fill="none" xmlns="http://www.w3.org/2000/svg">
<path d="M1.00365 7.25203e-06C0.871702 -0.000495844 0.740963 0.0251823 0.618967 0.0754409C0.49697 0.1257 0.386129 0.199566 0.292831 0.292861C0.199534 0.386156 0.125627 0.497057 0.0753695 0.619048C0.0251123 0.741039 -0.00050057 0.871778 7.41051e-06 1.00371V16.9966C-0.00049057 17.1285 0.0251297 17.2591 0.0753913 17.3811C0.125653 17.5031 0.199562 17.6139 0.292858 17.7072C0.386155 17.8005 0.496993 17.8745 0.618984 17.9247C0.740976 17.975 0.871708 18.0006 1.00365 18.0001H20.9964C21.1283 18.0006 21.259 17.975 21.381 17.9247C21.503 17.8745 21.6138 17.8005 21.7071 17.7072C21.8004 17.6139 21.8743 17.5031 21.9246 17.3811C21.9749 17.2591 22.0005 17.1285 22 16.9966V1.00371C22.0005 0.871778 21.9749 0.741039 21.9246 0.619048C21.8744 0.497057 21.8005 0.386156 21.7072 0.292861C21.6139 0.199566 21.503 0.1257 21.381 0.0754409C21.259 0.0251822 21.1283 -0.000495814 20.9964 7.25203e-06H1.00365ZM3.59475 2.00142H18.4306L11.0049 8.65746L3.59475 2.00142ZM1.99947 3.2568L10.3332 10.7447C10.5166 10.9093 10.7545 11.0003 11.001 11.0003C11.2475 11.0003 11.4853 10.9093 11.6688 10.7447L20.0005 3.28022V15.9988H1.99947V3.2568Z" fill="fill"/>
</svg>
