<svg width="22" height="22" viewBox="0 0 22 22" fill="none" xmlns="http://www.w3.org/2000/svg">
<path fill-rule="evenodd" clip-rule="evenodd" d="M0 10.6811C0 1.79302 11.3521 -3.82374 18.6078 3.09973C22.493 6.79577 23.1651 12.8922 19.9806 17.3462C16.0305 22.7582 10.8703 21.9584 5.94447 21.9584V11.4116C5.98957 9.08286 6.76616 7.07433 9.60089 6.11402C12.0704 5.38361 14.9502 6.75288 15.8193 9.3555C16.7345 12.1418 15.4078 14.0129 13.8535 15.1547C12.2992 16.2976 9.8759 16.2976 8.27649 15.2009V18.8082C11.7283 20.4582 17.1921 18.475 18.929 13.9682C20.117 10.8178 19.2942 7.1644 16.8258 4.88188C13.8546 2.46185 10.6074 1.86773 7.13357 3.55735C4.70915 4.78936 3.01843 7.30184 2.60593 10.0409V21.9584H0.0462003L0 10.6811Z" fill="fill"/>
</svg>
