<svg width="22" height="22" viewBox="0 0 22 22" fill="none" xmlns="http://www.w3.org/2000/svg">
<path fill-rule="evenodd" clip-rule="evenodd" d="M10.999 0C4.92877 0 0 4.92877 0 11C0 17.0712 4.92877 22 10.999 22C17.0702 22 21.999 17.0712 21.999 11C21.999 4.92877 17.0702 0 10.999 0ZM10.999 1.81502C16.0679 1.81502 20.184 5.93106 20.184 11C20.184 16.0689 16.0679 20.185 10.999 20.185C5.93005 20.185 1.815 16.0689 1.815 11C1.815 5.93106 5.93005 1.81502 10.999 1.81502ZM10.2165 12.7948C10.392 12.9189 10.6037 12.9854 10.999 12.9854C12.94 12.9854 14.5161 11.4094 14.5161 9.46833C14.5161 7.52727 12.94 5.95123 10.999 5.95123C9.05793 5.95123 7.48191 7.52727 7.48191 9.46833C7.48191 10.0058 7.68457 10.5573 8.00522 10.9576C8.31882 11.3489 8.25528 11.9206 7.86506 12.2332C7.47382 12.5468 6.9021 12.4833 6.58952 12.093C6.02283 11.3872 5.66688 10.4152 5.66688 9.46833C5.66688 6.52599 8.05664 4.13621 10.999 4.13621C13.9423 4.13621 16.3311 6.52599 16.3311 9.46833C16.3311 12.4117 13.9423 14.8004 10.999 14.8004C10.4999 14.8004 10.1328 14.753 9.8374 14.6613L9.33523 17.1368C9.2354 17.6278 8.75643 17.9455 8.26537 17.8456C7.77431 17.7458 7.45668 17.2668 7.5565 16.7758L9.22531 8.55275C9.32513 8.06169 9.8041 7.74406 10.2952 7.84388C10.7862 7.94371 11.1039 8.42268 11.004 8.91374L10.2165 12.7948Z" fill="fill"/>
</svg>
