<svg width="22" height="22" viewBox="0 0 22 22" fill="none" xmlns="http://www.w3.org/2000/svg">
<path d="M6.41674 18.7523C6.28745 18.7523 6.15907 18.7156 6.0472 18.645C5.86472 18.5286 5.74826 18.3343 5.73084 18.1188L5.55478 15.8803C3.76482 14.3477 2.7433 12.2485 2.7433 10.0769C2.7433 5.76217 6.44608 2.25225 10.9962 2.25225C15.5463 2.25225 19.249 5.76217 19.249 10.0769C19.249 14.3917 15.5463 17.9025 10.9962 17.9025C10.4038 17.9025 9.82518 17.8447 9.27499 17.7302L6.65791 18.7083C6.57997 18.7376 6.49835 18.7523 6.41674 18.7523ZM10.9962 3.62725C7.20352 3.62725 4.11878 6.52025 4.11878 10.0769C4.11878 11.9213 5.04035 13.7152 6.64782 14.9985C6.79637 15.1177 6.88899 15.2918 6.90366 15.4816L7.03112 17.1004L8.92928 16.3909C9.065 16.3249 9.22272 16.3057 9.37952 16.3442C9.88937 16.4661 10.4322 16.5275 10.9953 16.5275C14.7879 16.5275 17.8726 13.6336 17.8726 10.0769C17.8726 6.52025 14.7888 3.62725 10.9962 3.62725Z" fill="fill"/>
<path d="M4.26824 22C4.1417 22 4.01516 21.9652 3.90328 21.8955C3.69238 21.7635 3.5695 21.5279 3.58142 21.2795L3.58876 21.1319C3.6071 20.7524 3.92346 20.4463 4.30859 20.4783C4.32418 20.4792 4.33885 20.4802 4.35444 20.482L5.54744 19.8293C5.88031 19.6469 6.29753 19.7688 6.48093 20.1025C6.66341 20.4353 6.54053 20.8533 6.20767 21.0366L4.59928 21.9166C4.49566 21.9725 4.38195 22 4.26824 22ZM7.48595 20.2391C7.24295 20.2391 7.00728 20.1098 6.88257 19.8816C6.70009 19.5488 6.82205 19.1308 7.15583 18.9475L8.19203 18.381C8.34241 18.2802 8.53314 18.2398 8.72388 18.2811C8.89994 18.3205 9.08059 18.3562 9.26031 18.3856C9.63536 18.4479 9.88845 18.8027 9.82518 19.1776C9.76282 19.5516 9.40978 19.8046 9.03382 19.7423C8.91736 19.723 8.8009 19.701 8.68536 19.6781L7.81515 20.1548C7.71061 20.2125 7.59782 20.2391 7.48595 20.2391ZM4.36728 20.0218C4.35627 20.0218 4.34435 20.0218 4.33243 20.0209C3.9528 20.0017 3.66028 19.6799 3.67954 19.3004L3.77032 17.4689C3.78958 17.0894 4.1041 16.7814 4.49107 16.8162C4.8707 16.8355 5.16231 17.1573 5.14397 17.5368L5.05318 19.3682C5.03484 19.7358 4.73132 20.0218 4.36728 20.0218ZM10.9962 19.9018C10.6165 19.9018 10.2974 19.5938 10.2974 19.2143C10.2974 18.8348 10.5936 18.5268 10.9732 18.5268H10.9962C11.5665 18.5268 12.1369 18.4818 12.6917 18.3938C13.0658 18.3288 13.4188 18.5891 13.4784 18.964C13.5381 19.3389 13.2822 19.6918 12.9072 19.7505C12.2818 19.8513 11.639 19.9018 10.9962 19.9018ZM14.5788 19.3279C14.2909 19.3279 14.0222 19.1464 13.9269 18.8577C13.8067 18.4965 14.002 18.1087 14.3615 17.9877C14.9062 17.8072 15.4371 17.5789 15.9387 17.3113C16.2734 17.1343 16.6897 17.2581 16.8695 17.5945C17.0483 17.93 16.9217 18.3462 16.5861 18.5258C16.0167 18.8293 15.4151 19.0878 14.7971 19.294C14.7246 19.316 14.6513 19.3279 14.5788 19.3279ZM17.7965 17.6046C17.593 17.6046 17.3921 17.5147 17.2564 17.3433C17.0217 17.0445 17.0721 16.6127 17.3711 16.3772C17.8213 16.0224 18.2367 15.6283 18.6062 15.2038C18.8557 14.9178 19.2903 14.8876 19.5764 15.1378C19.8625 15.3872 19.8928 15.8217 19.6433 16.1086C19.2179 16.5963 18.7401 17.05 18.2229 17.4579C18.0955 17.556 17.9451 17.6046 17.7965 17.6046ZM3.44938 16.83C3.27515 16.83 3.10184 16.7649 2.96704 16.6329C2.49479 16.1682 2.06839 15.6677 1.69977 15.1442C1.48152 14.8335 1.5558 14.4045 1.86666 14.1863C2.17752 13.9672 2.60575 14.0433 2.82491 14.3532C3.14585 14.8088 3.51815 15.2469 3.93171 15.6521C4.20222 15.9179 4.20589 16.3542 3.93996 16.6247C3.80517 16.7612 3.62727 16.83 3.44938 16.83ZM20.1844 14.8527C20.0688 14.8527 19.9515 14.8243 19.8442 14.762C19.5141 14.5741 19.3994 14.1543 19.5874 13.8252C19.868 13.3329 20.0954 12.8132 20.2641 12.2824C20.3797 11.9203 20.7657 11.7178 21.1279 11.8351C21.4902 11.9497 21.6901 12.3365 21.5754 12.6977C21.3774 13.3219 21.1105 13.9297 20.7822 14.5053C20.6557 14.7281 20.4228 14.8527 20.1844 14.8527ZM1.3614 13.8426C1.09639 13.8426 0.843302 13.6886 0.730512 13.4301C0.462753 12.8168 0.264684 12.1807 0.141807 11.539C0.0702826 11.1659 0.315118 10.8057 0.688331 10.7351C1.05696 10.6563 1.421 10.9074 1.49253 11.2814C1.59523 11.8232 1.76304 12.3612 1.99045 12.881C2.14267 13.2284 1.98312 13.6336 1.63558 13.7857C1.54663 13.8243 1.4531 13.8426 1.3614 13.8426ZM21.2802 11.3841C21.26 11.3841 21.2389 11.3832 21.2187 11.3813C20.84 11.3474 20.5612 11.0138 20.5943 10.6361C20.6144 10.4106 20.6245 10.1823 20.6245 9.95225C20.6245 9.62133 20.6034 9.28583 20.5612 8.95675C20.5126 8.58 20.7786 8.23533 21.1555 8.18675C21.5388 8.14 21.8771 8.40492 21.9248 8.78075C21.9752 9.1685 22 9.56175 22 9.95042C22 10.2208 21.9881 10.4903 21.9642 10.7571C21.9331 11.1146 21.6323 11.3841 21.2802 11.3841ZM0.688331 10.2722C0.678244 10.2722 0.669074 10.2722 0.658988 10.2712C0.279355 10.2548 -0.0149971 9.93483 0.00059166 9.55533C0.0290182 8.89625 0.129887 8.23808 0.301363 7.59917C0.400398 7.23342 0.778196 7.01617 1.14407 7.11333C1.51087 7.21142 1.72819 7.58908 1.63008 7.95575C1.48427 8.4975 1.399 9.05483 1.37515 9.61492C1.35956 9.98342 1.05513 10.2722 0.688331 10.2722ZM20.8125 7.77792C20.531 7.77792 20.266 7.60375 20.1651 7.32325C19.9762 6.79983 19.7286 6.28925 19.4297 5.80708C19.2298 5.4835 19.3288 5.06092 19.6516 4.86017C19.9735 4.66125 20.3971 4.75933 20.5988 5.082C20.9491 5.64575 21.2389 6.24433 21.4599 6.8585C21.5892 7.216 21.403 7.60925 21.0454 7.7385C20.9684 7.766 20.8895 7.77792 20.8125 7.77792ZM1.62549 6.75767C1.51912 6.75767 1.41183 6.73383 1.31096 6.68158C0.973514 6.50833 0.840551 6.09308 1.01386 5.75483C1.31188 5.17733 1.67317 4.62275 2.08765 4.10575C2.32515 3.80967 2.75705 3.76108 3.05507 4.00033C3.35126 4.23867 3.39894 4.67042 3.16053 4.96742C2.8029 5.412 2.49204 5.88958 2.23712 6.3855C2.11516 6.622 1.87491 6.75767 1.62549 6.75767ZM18.8997 4.67958C18.7163 4.67958 18.5329 4.60625 18.3972 4.46233C18.0148 4.0535 17.5856 3.67308 17.1216 3.33117C16.8163 3.10658 16.7503 2.67575 16.9758 2.3705C17.2005 2.06342 17.6306 2.00017 17.9378 2.22475C18.4696 2.61617 18.962 3.0525 19.4022 3.52275C19.6617 3.8005 19.647 4.235 19.3692 4.49533C19.2362 4.61817 19.0675 4.67958 18.8997 4.67958ZM3.90237 3.91417C3.70797 3.91417 3.51448 3.83167 3.37877 3.67217C3.1321 3.3825 3.16603 2.94983 3.45579 2.70233C3.94638 2.28525 4.48282 1.90575 5.05135 1.57575C5.37963 1.38417 5.80144 1.496 5.99126 1.82417C6.18199 2.15325 6.07104 2.574 5.74276 2.76467C5.24483 3.05342 4.77534 3.38433 4.34802 3.75008C4.21781 3.86008 4.06009 3.91417 3.90237 3.91417ZM15.9635 2.51625C15.8608 2.51625 15.7572 2.49425 15.659 2.44567C15.1474 2.19358 14.6109 1.98275 14.0626 1.81958C13.6985 1.71233 13.4904 1.32917 13.5986 0.96525C13.7068 0.601333 14.0901 0.39325 14.4541 0.501417C15.0768 0.685667 15.6875 0.924917 16.2679 1.21092C16.609 1.37958 16.7484 1.79208 16.5797 2.13217C16.4614 2.376 16.2175 2.51625 15.9635 2.51625ZM7.05405 2.07625C6.77437 2.07625 6.51211 1.90483 6.40941 1.628C6.27736 1.27233 6.45801 0.876333 6.81471 0.744333C7.41992 0.518833 8.04989 0.342833 8.68628 0.219083C9.05491 0.142083 9.41987 0.3905 9.49231 0.763583C9.56475 1.13575 9.32084 1.49692 8.94762 1.56933C8.38459 1.67842 7.82798 1.83425 7.29246 2.03317C7.2136 2.0625 7.13382 2.07625 7.05405 2.07625ZM12.4679 1.4685C12.4386 1.4685 12.4092 1.46667 12.379 1.463C11.9205 1.40433 11.4592 1.41075 10.9971 1.375C10.8825 1.375 10.7697 1.37683 10.6578 1.3805C10.2855 1.3695 9.96089 1.09358 9.94989 0.713167C9.93797 0.333667 10.2369 0.0165 10.6165 0.0055C10.7495 0.00183333 10.8815 0.00275 11.0173 0C11.528 0 12.0461 0.033 12.555 0.0980833C12.9319 0.146667 13.1979 0.491333 13.1493 0.868083C13.1052 1.21458 12.809 1.4685 12.4679 1.4685Z" fill="fill"/>
</svg>
