<svg width="24" height="23" viewBox="0 0 24 23" fill="none" xmlns="http://www.w3.org/2000/svg">
<path d="M18.1618 10.9141L20.842 9.842M5.83832 10.9141L3.15799 9.842M1 17.5469C1 17.5469 6.37326 15.0615 6.37326 6.62672C6.37326 5.13442 6.96607 3.70324 8.02129 2.64803C9.0765 1.59281 10.5077 1 12 1C13.4923 1 14.9235 1.59281 15.9787 2.64803C17.0339 3.70324 17.6267 5.13442 17.6267 6.62672C17.6267 15.0615 23 17.5468 23 17.5468C22.0701 18.4197 20.093 17.8871 18.9672 18.5069C17.858 19.1175 17.2517 21.0772 15.9963 21.3984C14.7823 21.709 13.3108 20.2916 12 20.2916C10.6892 20.2916 9.21772 21.709 8.00373 21.3984C6.74826 21.0772 6.14197 19.1176 5.03282 18.507C3.90696 17.8871 1.92993 18.4197 1 17.5469Z" stroke="stroke" stroke-width="2" stroke-linecap="round" stroke-linejoin="round"/>
</svg>
