<svg width="22" height="13" viewBox="0 0 22 13" fill="none" xmlns="http://www.w3.org/2000/svg">
<path d="M0.843848 6.75092C0.620046 6.75092 0.40541 6.83982 0.247157 6.99807C0.0889052 7.15633 0 7.37096 0 7.59477V10.9702C0 11.194 0.0889052 11.4086 0.247157 11.5669C0.40541 11.7251 0.620046 11.814 0.843848 11.814C1.06765 11.814 1.28229 11.7251 1.44054 11.5669C1.59879 11.4086 1.6877 11.194 1.6877 10.9702V7.59477C1.6877 7.37096 1.59879 7.15633 1.44054 6.99807C1.28229 6.83982 1.06765 6.75092 0.843848 6.75092ZM3.37539 4.21937C3.15159 4.21937 2.93695 4.30828 2.7787 4.46653C2.62045 4.62478 2.53155 4.83942 2.53155 5.06322V11.814C2.53155 12.0378 2.62045 12.2524 2.7787 12.4107C2.93695 12.569 3.15159 12.6579 3.37539 12.6579C3.5992 12.6579 3.81383 12.569 3.97208 12.4107C4.13034 12.2524 4.21924 12.0378 4.21924 11.814V5.06322C4.21924 4.83942 4.13034 4.62478 3.97208 4.46653C3.81383 4.30828 3.5992 4.21937 3.37539 4.21937ZM5.90694 3.37552C5.68314 3.37552 5.4685 3.46443 5.31025 3.62268C5.152 3.78093 5.06309 3.99557 5.06309 4.21937V11.814C5.06309 12.0378 5.152 12.2524 5.31025 12.4107C5.4685 12.569 5.68314 12.6579 5.90694 12.6579C6.13074 12.6579 6.34538 12.569 6.50363 12.4107C6.66188 12.2524 6.75079 12.0378 6.75079 11.814V4.21937C6.75079 3.99557 6.66188 3.78093 6.50363 3.62268C6.34538 3.46443 6.13074 3.37552 5.90694 3.37552ZM8.43848 0.843978C8.21468 0.843978 8.00004 0.932884 7.84179 1.09114C7.68354 1.24939 7.59464 1.46402 7.59464 1.68783V11.814C7.59464 12.0378 7.68354 12.2524 7.84179 12.4107C8.00004 12.569 8.21468 12.6579 8.43848 12.6579C8.66229 12.6579 8.87692 12.569 9.03517 12.4107C9.19343 12.2524 9.28233 12.0378 9.28233 11.814V1.68783C9.28233 1.46402 9.19343 1.24939 9.03517 1.09114C8.87692 0.932884 8.66229 0.843978 8.43848 0.843978ZM19.4085 5.99989C19.223 4.34262 18.4307 2.81265 17.1842 1.70484C15.9377 0.597027 14.3253 -0.0102181 12.6577 0.000130114C11.9863 0.000130114 11.3424 0.266845 10.8677 0.741602C10.3929 1.21636 10.1262 1.86027 10.1262 2.53168V11.814C10.1262 12.0378 10.2151 12.2524 10.3733 12.4107C10.5316 12.569 10.7462 12.6579 10.97 12.6579C11.1938 12.6579 11.4085 12.569 11.5667 12.4107C11.725 12.2524 11.8139 12.0378 11.8139 11.814V2.53168C11.8139 2.30787 11.9028 2.09324 12.061 1.93498C12.2193 1.77673 12.4339 1.68783 12.6577 1.68783C14.0005 1.68783 15.2884 2.22126 16.2379 3.17077C17.1874 4.12029 17.7208 5.4081 17.7208 6.75092C17.7208 6.97472 17.8097 7.18936 17.968 7.34761C18.1262 7.50586 18.3409 7.59477 18.5647 7.59477C19.0123 7.59477 19.4415 7.77258 19.758 8.08908C20.0745 8.40559 20.2524 8.83486 20.2524 9.28246C20.2524 9.73007 20.0745 10.1593 19.758 10.4758C19.4415 10.7923 19.0123 10.9702 18.5647 10.9702H14.3454C14.1216 10.9702 13.907 11.0591 13.7487 11.2173C13.5905 11.3756 13.5016 11.5902 13.5016 11.814C13.5016 12.0378 13.5905 12.2524 13.7487 12.4107C13.907 12.569 14.1216 12.6579 14.3454 12.6579H18.5647C19.3966 12.6726 20.2046 12.3796 20.8337 11.8351C21.4628 11.2905 21.8686 10.5328 21.9732 9.70741C22.0778 8.88198 21.8739 8.04699 21.4005 7.36272C20.9272 6.67846 20.2178 6.19313 19.4085 5.99989Z" fill="fill"/>
</svg>
