<svg width="22" height="22" viewBox="0 0 22 22" fill="none" xmlns="http://www.w3.org/2000/svg">
<path fill-rule="evenodd" clip-rule="evenodd" d="M10.999 0C4.92877 0 0 4.92877 0 11C0 17.0712 4.92877 22 10.999 22C17.0702 22 21.999 17.0712 21.999 11C21.999 4.92877 17.0702 0 10.999 0ZM10.999 1.81502C16.0679 1.81502 20.184 5.93106 20.184 11C20.184 16.0689 16.0679 20.185 10.999 20.185C5.93005 20.185 1.815 16.0689 1.815 11C1.815 5.93106 5.93005 1.81502 10.999 1.81502ZM6.12972 15.352C6.12972 15.352 11.2329 13.9615 14.866 16.2787C15.2885 16.5479 15.8501 16.4239 16.1193 16.0014C16.3886 15.5799 16.2646 15.0182 15.8421 14.749C11.605 12.0467 5.66183 13.5985 5.66183 13.5985C5.17783 13.7276 4.88944 14.2247 5.01851 14.7087C5.14758 15.1927 5.64572 15.4811 6.12972 15.352ZM6.19625 12.1394C6.19625 12.1394 10.759 10.5704 16.0024 13.3051C16.4471 13.537 16.9956 13.3646 17.2275 12.9199C17.4584 12.4762 17.286 11.9277 16.8423 11.6958C10.8326 8.56284 5.5953 10.4273 5.5953 10.4273C5.1234 10.5926 4.87333 11.1109 5.03971 11.5838C5.20508 12.0557 5.72334 12.3058 6.19625 12.1394ZM5.48135 8.89055C5.48135 8.89055 11.0323 7.14914 17.3264 10.0844C17.7801 10.2962 18.3206 10.0995 18.5323 9.64579C18.7441 9.19204 18.5474 8.65157 18.0937 8.43982C11.1029 5.17884 4.93281 7.16023 4.93281 7.16023C4.45485 7.31149 4.19067 7.82272 4.34192 8.29967C4.49418 8.77762 5.00441 9.0418 5.48135 8.89055Z" fill="fill"/>
</svg>
