<svg width="20" height="22" viewBox="0 0 20 22" fill="none" xmlns="http://www.w3.org/2000/svg">
<path d="M0 0V2.599H19.3644V0H0ZM0 4.94176V7.57737H19.3644V4.94176H0ZM0 9.88353V22C0.791444 21.7716 1.58657 21.1517 2.30616 20.7503L7.1381 18.0517C7.73635 17.7179 8.33624 17.3865 8.93178 17.0479C9.12645 16.9373 9.45572 16.6619 9.68498 16.666C9.91091 16.6702 10.239 16.9476 10.4326 17.0582C10.9904 17.377 11.5533 17.6895 12.1165 17.9988C13.8191 18.9339 15.5021 19.9047 17.2047 20.8398C17.863 21.2014 18.6322 21.8325 19.3644 22V9.88353H0Z" fill="fill"/>
</svg>
