<svg width="24" height="22" viewBox="0 0 24 22" fill="none" xmlns="http://www.w3.org/2000/svg">
<path d="M7.55325 11.861L17.4167 20.5408C17.5308 20.6412 17.6691 20.7103 17.8179 20.7412C17.9667 20.7721 18.1211 20.7639 18.2657 20.7172C18.4104 20.6706 18.5405 20.5871 18.6432 20.4751C18.746 20.363 18.8178 20.2262 18.8518 20.078L22.9778 2.07358C23.0135 1.91791 23.006 1.75546 22.9562 1.60373C22.9064 1.45201 22.8161 1.31675 22.695 1.21255C22.574 1.10834 22.4269 1.03914 22.2694 1.01239C22.112 0.985649 21.9502 1.00237 21.8016 1.06077L1.55668 9.01412C1.38024 9.08343 1.23099 9.20802 1.13126 9.36923C1.03153 9.53044 0.986684 9.71961 1.00343 9.90844C1.02018 10.0973 1.09762 10.2756 1.22417 10.4167C1.35072 10.5579 1.51957 10.6542 1.70545 10.6914L7.55325 11.861ZM7.55325 11.861L22.484 1.07763M7.55325 11.861L7.55325 19.0034C7.55325 19.1769 7.60472 19.3466 7.70114 19.4909C7.79757 19.6352 7.93463 19.7477 8.09498 19.8141C8.25533 19.8805 8.43178 19.8979 8.60201 19.8641C8.77224 19.8302 8.9286 19.7466 9.05133 19.6239L12.4793 16.1959" stroke="stroke" stroke-width="2" stroke-linecap="round" stroke-linejoin="round"/>
</svg>
