<svg width="18" height="22" viewBox="0 0 18 22" fill="none" xmlns="http://www.w3.org/2000/svg">
<path d="M16.2963 3.25926H15.4815C14.5827 3.25926 13.8519 2.52837 13.8519 1.62963V0.814815C13.8519 0.365037 13.4876 0 13.037 0H9.77778C9.32718 0 8.96296 0.365037 8.96296 0.814815V15.0741C8.96296 16.1969 8.04956 17.1111 6.92593 17.1111C5.8023 17.1111 4.88889 16.1969 4.88889 15.0741C4.88889 13.9513 5.8023 13.037 6.92593 13.037C6.99844 13.037 7.06281 13.0134 7.12963 12.9963C7.19644 13.0134 7.26081 13.037 7.33333 13.037C7.78393 13.037 8.14815 12.672 8.14815 12.2222V8.96296C8.14815 8.51319 7.78393 8.14815 7.33333 8.14815C7.26081 8.14815 7.19644 8.17178 7.12963 8.18889C7.06281 8.17178 6.99844 8.14815 6.92593 8.14815C3.10689 8.14815 0 11.255 0 15.0741C0 18.8931 3.10689 22 6.92593 22C10.5608 22 13.5455 19.1832 13.8241 15.6184C13.8323 15.5719 13.8519 15.5296 13.8519 15.4815V7.87274C15.1181 8.30378 16.3362 8.14978 16.4039 8.14081C16.8088 8.08704 17.1111 7.74156 17.1111 7.33333V4.07407C17.1111 3.6243 16.7469 3.25926 16.2963 3.25926ZM15.4815 6.53726C14.9209 6.50548 14.1395 6.36615 13.552 5.88704C13.3084 5.68822 12.9727 5.6483 12.6875 5.78274C12.4039 5.91719 12.2222 6.204 12.2222 6.51852V15.0741C12.2222 17.9944 9.84622 20.3704 6.92593 20.3704C4.00563 20.3704 1.62963 17.9944 1.62963 15.0741C1.62963 12.2915 3.78807 10.0076 6.51852 9.79815V11.4481C4.69007 11.6535 3.25926 13.191 3.25926 15.0733C3.25926 17.0948 4.90437 18.7399 6.92593 18.7399C8.94748 18.7399 10.5926 17.0948 10.5926 15.0733V1.62963H12.2222C12.2222 3.42711 13.684 4.88889 15.4815 4.88889V6.53726Z" fill="fill"/>
</svg>
