<svg width="22" height="24" viewBox="0 0 22 24" fill="none" xmlns="http://www.w3.org/2000/svg">
<path d="M15.08 6.28V11.56M9.8 6.28V11.56M14.7614 18.6H10.1186C9.91274 18.6 9.71339 18.6722 9.55524 18.804L4.52 23V18.6H1.88C1.64661 18.6 1.42278 18.5073 1.25775 18.3423C1.09271 18.1772 1 17.9534 1 17.72V1.88C1 1.64661 1.09271 1.42278 1.25775 1.25775C1.42278 1.09271 1.64661 1 1.88 1H19.48C19.7134 1 19.9372 1.09271 20.1023 1.25775C20.2673 1.42278 20.36 1.64661 20.36 1.88V13.7878C20.36 13.9168 20.3316 14.0443 20.2769 14.1611C20.2222 14.2779 20.1425 14.3813 20.0434 14.4639L15.3248 18.396C15.1666 18.5278 14.9673 18.6 14.7614 18.6Z" stroke="stroke" stroke-width="2" stroke-linecap="round" stroke-linejoin="round"/>
</svg>
