<svg width="22" height="20" viewBox="0 0 22 20" fill="none" xmlns="http://www.w3.org/2000/svg">
<path d="M15.6666 15.6666C9.13998 20.8901 1 17.1333 1 17.1333C6.13332 17.8666 7.59998 15.6666 7.59998 15.6666C6.74614 15.6666 5.90402 15.4678 5.14031 15.086C4.37661 14.7041 3.7123 14.1497 3.19999 13.4666C3.66134 13.4301 4.10566 13.2761 4.49073 13.0194C4.87579 12.7627 5.1888 12.4118 5.39999 12C2.46666 11.2666 1 8.33331 1 8.33331C1.46055 8.54288 1.96067 8.65131 2.46666 8.65131C2.97265 8.65131 3.47277 8.54288 3.93332 8.33331C1.73333 6.86665 1 2.46666 1 2.46666C7.59998 8.33331 12 7.59998 12 7.59998V5.03332C12 3.96362 12.4249 2.93773 13.1813 2.18133C13.9377 1.42494 14.9636 1 16.0333 1C17.103 1 18.1289 1.42494 18.8853 2.18133C19.6417 2.93773 20.0666 3.96362 20.0666 5.03332V6.59972C20.0697 7.43353 19.9572 8.26374 19.7322 9.06664C19.074 11.6265 17.6567 13.9273 15.6666 15.6666Z" stroke="stroke" stroke-width="2" stroke-linecap="round" stroke-linejoin="round"/>
</svg>
