<svg width="22" height="22" viewBox="0 0 22 22" fill="none" xmlns="http://www.w3.org/2000/svg">
<path d="M16.1356 13.211C15.9146 13.1011 14.4778 12.4419 14.2568 12.3321C14.0358 12.2222 13.8147 12.2222 13.5937 12.4419C13.3727 12.6617 12.9306 13.3208 12.7096 13.5406C12.599 13.7603 12.378 13.7603 12.157 13.6504C11.3833 13.3208 10.6097 12.8814 9.94661 12.3321C9.39402 11.7828 8.84143 11.1236 8.39936 10.4644C8.28884 10.2447 8.39936 10.025 8.50987 9.91511C8.62039 9.80524 8.73091 9.58552 8.95195 9.47566C9.06246 9.36579 9.17298 9.14607 9.17298 9.0362C9.2835 8.92634 9.2835 8.70662 9.17298 8.59675C9.06246 8.48689 8.50987 7.16854 8.28884 6.61923C8.17832 5.85019 7.95728 5.85019 7.73625 5.85019C7.62573 5.85019 7.4047 5.85019 7.18366 5.85019C6.96262 5.85019 6.63107 6.06991 6.52055 6.17978C5.85745 6.83895 5.52589 7.60799 5.52589 8.48689C5.63641 9.47566 5.96796 10.4644 6.63107 11.3433C7.84677 13.1011 9.39402 14.5293 11.2728 15.4082C11.8254 15.628 12.2675 15.8477 12.8201 15.9576C13.3727 16.1773 13.9252 16.1773 14.5884 16.0674C15.362 15.9576 16.0251 15.4082 16.4672 14.7491C16.6882 14.3096 16.6882 13.8702 16.5777 13.4307C16.5777 13.4307 16.3566 13.3208 16.1356 13.211ZM18.8986 3.21348C14.5884 -1.07116 7.62573 -1.07116 3.31554 3.21348C-0.221036 6.72909 -0.884143 12.1124 1.54725 16.397L0 22L5.85745 20.4619C7.51521 21.3408 9.2835 21.7803 11.0518 21.7803C17.1303 21.7803 21.9931 16.9463 21.9931 10.9039C22.1036 8.04744 20.8879 5.30087 18.8986 3.21348ZM15.9146 18.5943C14.4778 19.4732 12.8201 20.0225 11.0518 20.0225C9.39402 20.0225 7.84677 19.583 6.41004 18.814L6.07848 18.5943L2.65243 19.4732L3.53657 16.1773L3.31554 15.8477C0.663107 11.4532 1.98932 5.96005 6.29952 3.21348C10.6097 0.466917 16.1356 1.89513 18.788 6.06991C21.4405 10.3546 20.2248 15.9576 15.9146 18.5943Z" fill="fill"/>
</svg>
