<svg width="24" height="17" viewBox="0 0 24 17" fill="none" xmlns="http://www.w3.org/2000/svg">
<path fill-rule="evenodd" clip-rule="evenodd" d="M22.0629 2.41231C21.466 1.38277 20.8192 1.19359 19.5008 1.12173C18.1838 1.0352 14.8708 1 12.0022 1C9.12772 1 5.81328 1.0352 4.49777 1.12173C3.18225 1.19505 2.53403 1.38277 1.93127 2.41231C1.31678 3.44184 1 5.21199 1 8.32991V8.34164C1 11.4464 1.31678 13.2297 1.93127 14.246C2.53256 15.2741 3.18079 15.4618 4.49777 15.5484C5.81328 15.6217 9.12626 15.6657 12.0022 15.6657C14.8708 15.6657 18.1838 15.6217 19.5022 15.5484C20.8207 15.4618 21.4674 15.2741 22.0643 14.246C22.6862 13.2283 23 11.4449 23 8.34164V8.32991C22.9985 5.21199 22.6862 3.44184 22.0629 2.41231Z" stroke="stroke" stroke-width="1.7" stroke-miterlimit="10" stroke-linecap="round" stroke-linejoin="round"/>
<path fill-rule="evenodd" clip-rule="evenodd" d="M9.79941 11.9993V4.66642L15.6657 8.33284L9.79941 11.9993Z" stroke="stroke" stroke-width="1.7" stroke-miterlimit="10" stroke-linecap="round" stroke-linejoin="round"/>
</svg>
