<svg width="24" height="24" viewBox="0 0 24 24" fill="none" xmlns="http://www.w3.org/2000/svg">
<path d="M0 7.63636C0 7.92569 0.114935 8.20317 0.31952 8.40775C0.524105 8.61234 0.801582 8.72727 1.09091 8.72727C1.38024 8.72727 1.65771 8.61234 1.8623 8.40775C2.06688 8.20317 2.18182 7.92569 2.18182 7.63636V4.36364C2.18182 3.78498 2.41169 3.23003 2.82086 2.82086C3.23003 2.41169 3.78498 2.18182 4.36364 2.18182H19.6364C20.215 2.18182 20.77 2.41169 21.1791 2.82086C21.5883 3.23003 21.8182 3.78498 21.8182 4.36364V7.63636C21.8182 7.92569 21.9331 8.20317 22.1377 8.40775C22.3423 8.61234 22.6198 8.72727 22.9091 8.72727C23.1984 8.72727 23.4759 8.61234 23.6805 8.40775C23.8851 8.20317 24 7.92569 24 7.63636V4.36364C24 3.20633 23.5403 2.09642 22.7219 1.27808C21.9036 0.459739 20.7937 0 19.6364 0H4.36364C3.20633 0 2.09642 0.459739 1.27808 1.27808C0.459739 2.09642 0 3.20633 0 4.36364V7.63636Z" fill="fill"/>
<path d="M12 24C12.2893 24 12.5668 23.8851 12.7714 23.6805C12.976 23.4759 13.0909 23.1984 13.0909 22.9091V9.28636L15.6082 11.6973C15.8172 11.8976 16.0973 12.0067 16.3868 12.0006C16.6763 11.9945 16.9515 11.8736 17.1518 11.6645C17.3522 11.4555 17.4613 11.1754 17.4552 10.8859C17.449 10.5965 17.3281 10.3213 17.1191 10.1209L12.7555 5.94545C12.5523 5.75044 12.2816 5.64155 12 5.64155C11.7184 5.64155 11.4477 5.75044 11.2445 5.94545L6.88091 10.1209C6.67187 10.3213 6.55099 10.5965 6.54485 10.8859C6.53871 11.1754 6.64782 11.4555 6.84818 11.6645C7.04854 11.8736 7.32373 11.9945 7.61322 12.0006C7.90271 12.0067 8.18278 11.8976 8.39182 11.6973L10.9091 9.28636V22.9091C10.9091 23.1984 11.024 23.4759 11.2286 23.6805C11.4332 23.8851 11.7107 24 12 24Z" fill="fill"/>
</svg>
