<?xml version="1.0" standalone="no"?>
<!DOCTYPE svg PUBLIC "-//W3C//DTD SVG 20010904//EN"
 "http://www.w3.org/TR/2001/REC-SVG-20010904/DTD/svg10.dtd">
<svg version="1.0" xmlns="http://www.w3.org/2000/svg"
 width="700.000000pt" height="700.000000pt" viewBox="0 0 700.000000 700.000000"
 preserveAspectRatio="xMidYMid meet">
<metadata>
Created by potrace 1.14, written by Peter Selinger 2001-2017
</metadata>
<g transform="translate(0.000000,700.000000) scale(0.100000,-0.100000)"
fill="#000000" stroke="none">
<path d="M3278 6996 c-1 -2 -42 -6 -89 -10 -47 -4 -95 -8 -105 -10 -10 -2 -41
-7 -69 -10 -335 -44 -715 -158 -1030 -312 -180 -87 -448 -247 -555 -331 -8 -6
-51 -40 -95 -74 -351 -273 -674 -652 -897 -1054 -48 -86 -148 -289 -148 -301
0 -2 -11 -27 -24 -56 -60 -133 -155 -432 -181 -569 -3 -13 -11 -58 -20 -99
-29 -147 -35 -194 -52 -370 -15 -163 -8 -592 12 -711 2 -13 6 -46 9 -74 9 -78
22 -152 51 -285 21 -96 91 -339 114 -395 5 -11 25 -65 46 -120 63 -166 249
-531 312 -610 4 -6 34 -49 65 -95 31 -47 97 -136 147 -197 423 -524 974 -912
1601 -1125 196 -67 448 -127 639 -154 25 -3 57 -8 71 -10 163 -25 682 -25 842
1 13 2 46 7 73 10 72 10 86 12 120 19 17 3 44 8 60 11 343 65 740 212 1039
384 49 28 93 51 97 51 5 0 9 5 9 10 0 6 5 10 10 10 15 0 220 141 330 227 152
118 324 280 450 422 36 41 70 79 76 85 6 6 48 61 94 121 150 197 277 405 383
628 26 53 47 99 47 102 0 2 11 28 24 57 57 127 151 421 182 573 17 81 54 301
59 350 4 33 9 71 11 85 9 46 11 524 4 605 -15 153 -21 210 -25 225 -2 8 -7 35
-10 60 -17 129 -80 384 -136 552 -348 1036 -1168 1857 -2204 2206 -168 57
-420 119 -555 137 -19 3 -46 7 -60 10 -13 2 -52 7 -86 11 -33 3 -74 8 -90 10
-32 5 -540 14 -546 10z m401 -1481 c218 -80 360 -230 415 -440 24 -94 16 -270
-17 -358 -21 -59 -82 -170 -110 -202 -53 -62 -165 -225 -192 -280 -71 -145
-67 -71 -69 -1278 l-1 -1088 38 5 c235 33 553 200 801 422 130 115 333 345
321 364 -3 5 -33 24 -68 43 -34 20 -104 60 -155 90 l-93 54 173 99 c95 54 175
102 176 106 2 5 7 8 12 8 4 0 79 41 167 92 87 50 178 102 203 116 25 14 73 43
108 64 34 21 65 38 67 38 3 0 23 11 45 25 l40 25 1 -82 c2 -372 -1 -1051 -4
-1055 -3 -2 -74 35 -157 83 l-152 88 -22 -30 c-223 -308 -526 -580 -828 -743
-137 -74 -388 -165 -514 -187 -13 -2 -36 -6 -51 -9 -93 -16 -157 -20 -313 -20
-279 0 -431 29 -705 135 -135 52 -375 195 -515 306 -161 129 -377 356 -471
493 -19 28 -40 51 -46 51 -7 0 -76 -39 -154 -86 -77 -47 -143 -84 -146 -80 -5
5 -7 1126 -1 1131 2 2 149 -82 328 -186 179 -104 336 -195 350 -203 146 -78
309 -180 298 -187 -7 -5 -79 -48 -160 -96 -81 -49 -148 -91 -148 -94 0 -3 30
-41 66 -85 235 -283 486 -478 768 -600 90 -38 276 -94 316 -94 14 0 15 122 14
1083 -1 595 -4 1093 -8 1106 -31 130 -74 221 -152 323 -24 32 -64 85 -89 117
-81 107 -131 211 -150 316 -12 69 -5 201 15 275 59 210 234 381 445 435 76 19
260 13 324 -10z"/>
<path d="M3415 5113 c-76 -40 -117 -104 -116 -184 0 -115 86 -200 201 -201
113 -1 201 85 201 197 0 118 -87 205 -203 205 -29 -1 -66 -8 -83 -17z"/>
</g>
</svg>
