<svg width="30" height="30" viewBox="0 0 30 30" fill="none" xmlns="http://www.w3.org/2000/svg">
<path fill-rule="evenodd" clip-rule="evenodd" d="M20.2944 8.2L19.3576 6.3264C18.9512 5.5136 18.12 5 17.2112 5H12.7888C11.88 5 11.0488 5.5136 10.6424 6.3264L9.7056 8.2H5.4C4.7632 8.2 4.1528 8.4528 3.7032 8.9032C3.2528 9.3528 3 9.9632 3 10.6C3 13.6656 3 20.3344 3 23.4C3 24.0368 3.2528 24.6472 3.7032 25.0968C4.1528 25.5472 4.7632 25.8 5.4 25.8C9.5232 25.8 20.4768 25.8 24.6 25.8C25.2368 25.8 25.8472 25.5472 26.2968 25.0968C26.7472 24.6472 27 24.0368 27 23.4C27 20.3344 27 13.6656 27 10.6C27 9.9632 26.7472 9.3528 26.2968 8.9032C25.8472 8.4528 25.2368 8.2 24.6 8.2H20.2944ZM19.0848 9.3576C19.22 9.6288 19.4968 9.8 19.8 9.8H24.6C24.812 9.8 25.016 9.884 25.1656 10.0344C25.316 10.184 25.4 10.388 25.4 10.6V23.4C25.4 23.612 25.316 23.816 25.1656 23.9656C25.016 24.116 24.812 24.2 24.6 24.2H5.4C5.188 24.2 4.984 24.116 4.8344 23.9656C4.684 23.816 4.6 23.612 4.6 23.4V10.6C4.6 10.388 4.684 10.184 4.8344 10.0344C4.984 9.884 5.188 9.8 5.4 9.8H10.2C10.5032 9.8 10.78 9.6288 10.9152 9.3576L12.0736 7.04239C12.2088 6.77119 12.4856 6.6 12.7888 6.6H17.2112C17.5144 6.6 17.7912 6.77119 17.9264 7.04239L19.0848 9.3576Z" fill="#EAD2C4"/>
<path fill-rule="evenodd" clip-rule="evenodd" d="M15 11.4C11.9096 11.4 9.4 13.9096 9.4 17C9.4 20.0904 11.9096 22.6 15 22.6C18.0904 22.6 20.6 20.0904 20.6 17C20.6 13.9096 18.0904 11.4 15 11.4ZM15 13C17.208 13 19 14.792 19 17C19 19.208 17.208 21 15 21C12.792 21 11 19.208 11 17C11 14.792 12.792 13 15 13Z" fill="#EAD2C4"/>
<path fill-rule="evenodd" clip-rule="evenodd" d="M7 13H8.6C9.0416 13 9.4 12.6416 9.4 12.2C9.4 11.7584 9.0416 11.4 8.6 11.4H7C6.5584 11.4 6.2 11.7584 6.2 12.2C6.2 12.6416 6.5584 13 7 13Z" fill="#EAD2C4"/>
</svg>
